<svg version="1.1" id="Layer_1" xmlns="http://www.w3.org/2000/svg" xmlns:xlink="http://www.w3.org/1999/xlink" x="0px" y="0px"
	 width="100%" viewBox="0 0 1024 1536" enable-background="new 0 0 1024 1536" xml:space="preserve">
<path fill="#FDFDFD" opacity="1.000000" stroke="none" 
	d="
M1.000000,598.000000 
	C1.000000,398.666656 1.000000,199.833328 1.000000,1.000000 
	C342.333344,1.000000 683.666687,1.000000 1025.000000,1.000000 
	C1025.000000,513.000000 1025.000000,1025.000000 1025.000000,1537.000000 
	C683.666687,1537.000000 342.333344,1537.000000 1.000000,1537.000000 
	C1.000000,1224.166626 1.000000,911.333313 1.000000,598.000000 
M664.295044,365.448975 
	C666.341309,363.388947 668.387573,361.328888 670.423889,359.278870 
	C668.529907,357.117584 666.728882,355.062347 665.663818,353.002014 
	C666.399414,353.013733 667.135010,353.025452 668.504639,353.355713 
	C671.846436,354.609558 675.218872,357.003845 678.524658,356.915131 
	C691.223999,356.574524 702.354126,360.836548 712.898010,367.197479 
	C716.964478,369.650696 720.730652,372.601837 724.695557,375.369385 
	C728.323181,366.280640 730.511719,347.579773 728.812683,332.734741 
	C724.827454,297.914124 707.714111,274.737213 672.607910,267.284302 
	C654.302307,263.398132 637.272583,265.530518 621.234009,274.996613 
	C613.549988,279.531769 613.308044,285.027039 619.911072,290.894684 
	C625.754089,296.087006 631.647461,301.249969 637.152039,306.790131 
	C648.380859,318.091461 657.823914,330.651489 662.592773,346.503265 
	C661.489075,346.653839 660.385376,346.804413 659.159973,346.181366 
	C655.361084,338.874939 652.614807,330.712555 647.526062,324.455078 
	C639.099976,314.093689 628.896179,305.199921 619.964233,295.219788 
	C614.374084,288.973572 608.561646,287.138977 600.473999,290.757935 
	C599.940674,289.742950 599.407349,288.727966 599.168579,287.127441 
	C602.876282,282.331207 602.320496,280.645294 596.527161,279.793579 
	C593.584534,279.360931 590.583130,279.320099 587.606873,279.124268 
	C563.945251,277.567566 540.789368,274.615265 522.922424,256.459198 
	C520.289368,253.783554 518.200317,254.862366 516.127441,258.093231 
	C514.755432,260.586212 513.384521,263.079803 512.010925,265.571930 
	C511.382263,266.712555 510.748505,267.850342 509.967560,268.122955 
	C509.633575,265.344757 509.486969,262.525757 508.894623,259.803772 
	C508.544312,258.194092 507.838654,256.171021 506.622375,255.421249 
	C505.870880,254.957962 503.498291,256.188843 502.469299,257.254059 
	C490.488251,269.657349 475.049438,274.497864 458.712128,276.941895 
	C448.707458,278.438568 438.538635,278.817200 428.464203,279.891663 
	C427.039825,280.043549 425.002838,281.016113 424.577942,282.120117 
	C424.156525,283.215027 424.981903,285.455597 426.001221,286.336761 
	C436.717194,295.600494 442.487549,307.871643 447.226318,320.763458 
	C453.585968,338.064941 459.286865,355.631470 466.284058,372.667908 
	C471.374969,385.062988 478.106415,396.784210 483.806061,409.432770 
	C482.206268,410.621338 480.606476,411.809875 478.552246,412.485077 
	C463.266693,388.111328 453.798584,361.228058 445.192657,333.747437 
	C443.226410,335.665588 442.089874,337.419464 441.153503,339.274384 
	C434.426727,352.599609 423.870636,361.034729 409.246613,364.193146 
	C397.045319,366.828308 385.455658,364.746826 374.244141,359.538818 
	C368.632080,356.931824 366.632751,358.379883 366.777405,364.644592 
	C366.835022,367.139313 366.942169,369.662903 367.367279,372.114288 
	C370.239075,388.673462 372.824249,405.294647 376.212616,421.749451 
	C383.764771,458.424469 396.601105,493.089935 417.062744,524.664368 
	C423.945312,535.284851 431.575958,545.444946 438.040833,556.305908 
	C447.906342,572.879761 457.061401,589.876709 466.503052,606.702454 
	C467.904663,609.200317 468.977448,612.798645 472.966125,607.994202 
	C474.203094,607.897217 475.440094,607.800171 476.906403,608.422119 
	C478.672089,612.821411 479.496338,618.014465 482.397949,621.456055 
	C488.584381,628.793945 495.785645,635.287903 502.698975,641.995911 
	C505.890747,645.092834 508.346069,644.184448 508.998657,639.630676 
	C509.515350,636.025024 509.679962,632.342285 509.681824,628.693542 
	C509.707550,578.128601 509.838562,527.562561 509.496674,476.999817 
	C509.442688,469.018433 507.190308,461.051941 506.260315,452.468231 
	C506.829987,451.047424 507.399658,449.626617 508.572418,448.176270 
	C509.120056,447.658173 509.667694,447.140076 511.174438,446.823456 
	C512.787476,446.882324 514.400513,446.941223 516.492004,447.507599 
	C517.739868,446.902008 519.277954,446.568939 520.164856,445.624420 
	C521.373901,444.336823 522.086304,442.582977 523.451294,441.555511 
	C524.345520,441.713776 525.239685,441.872040 525.973328,442.726685 
	C523.077332,448.855774 520.181396,454.984894 516.490784,461.149628 
	C512.964417,464.815338 512.884094,471.702087 516.595398,474.943542 
	C516.496643,479.276001 516.397888,483.608459 515.575684,488.056519 
	C515.052124,489.453094 514.112305,490.839020 514.076355,492.248016 
	C513.913208,498.643463 514.004883,505.045471 514.004883,511.445099 
	C514.004883,521.589966 513.879822,531.737610 514.108826,541.877319 
	C514.155518,543.943054 515.534302,545.978699 516.554626,548.741760 
	C516.463196,549.481873 516.371826,550.221985 515.627380,551.212646 
	C515.086548,552.842773 514.081665,554.470947 514.074646,556.103394 
	C513.972839,579.755920 513.959961,603.409241 514.100830,627.061401 
	C514.110718,628.724792 515.492493,630.380005 516.543518,632.885742 
	C516.663574,634.866272 516.497070,636.921265 516.986877,638.805664 
	C517.445618,640.570679 518.599487,642.154907 519.447449,643.818726 
	C520.963745,642.992554 522.758301,642.450745 523.946289,641.288879 
	C528.200623,637.128296 531.867004,632.283325 536.464539,628.576294 
	C543.570251,622.846802 549.032043,616.440002 550.532898,607.033386 
	C551.744019,607.374634 552.955200,607.715881 554.595154,608.723022 
	C558.722656,612.250793 559.093506,607.850403 560.226440,605.860840 
	C570.090027,588.540283 579.216125,570.764038 589.785095,553.889587 
	C603.368408,532.202576 618.622803,511.585114 629.013550,487.962036 
	C641.151428,460.367279 648.290588,431.352997 653.844543,401.931915 
	C656.455383,388.101196 657.446594,373.964691 659.894897,359.992218 
	C660.618530,359.989136 661.342224,359.986053 662.071655,360.829590 
	C662.067139,362.519745 662.062683,364.209900 662.080322,366.516541 
	C662.465515,366.869537 662.850769,367.222534 663.235901,367.575500 
	C663.496582,367.069855 663.757202,366.564209 664.295044,365.448975 
M292.979889,561.339417 
	C295.121094,557.801880 297.262329,554.264343 298.968414,551.445679 
	C294.400482,548.684570 289.778809,545.890930 285.422211,543.257568 
	C286.434113,550.300110 287.498718,557.709534 288.543274,564.979187 
	C290.017822,564.036377 291.550507,563.056396 293.264008,562.806641 
	C291.603394,567.326416 289.605408,571.753723 288.337219,576.381042 
	C280.417938,605.276672 272.697937,634.226929 264.831696,663.137207 
	C262.122650,673.093689 258.926361,682.923523 256.437347,692.931763 
	C254.702759,699.906372 258.247620,705.227844 264.693481,706.543640 
	C268.072235,707.233276 270.407806,706.450500 271.378906,702.573303 
	C272.507782,698.066223 273.758301,693.492004 275.725220,689.308594 
	C286.195740,667.038208 296.677216,644.766907 307.614197,622.723877 
	C315.178864,607.477722 322.915802,592.296509 326.170441,575.480835 
	C328.122925,565.393066 328.795746,555.046265 329.746033,544.788391 
	C329.882965,543.310547 328.686859,541.204895 327.444702,540.309937 
	C326.794739,539.841614 324.599060,541.207458 323.284393,542.035461 
	C320.198334,543.979065 317.483673,546.886902 314.150513,547.990112 
	C305.726410,550.778564 298.614716,555.166809 292.979889,561.339417 
M509.981598,226.004990 
	C510.670197,229.600159 511.358826,233.195328 512.047424,236.790497 
	C512.799255,236.750122 513.551086,236.709747 514.302917,236.669373 
	C515.206421,232.459854 516.109985,228.250336 517.032715,223.209061 
	C517.370972,220.918671 517.415771,218.535980 518.101990,216.355087 
	C520.222778,209.615067 521.635376,202.408859 525.071899,196.380676 
	C530.865234,186.218201 542.907166,184.481705 552.219116,191.563675 
	C556.888367,195.114761 561.265076,199.050415 565.642517,202.702362 
	C565.642517,186.535934 565.642517,169.046692 565.642517,150.714920 
	C568.017822,151.763855 569.277893,152.133362 570.331360,152.819916 
	C573.749451,155.047501 576.994690,154.578293 579.020874,151.311584 
	C584.729126,142.108566 589.912964,132.495895 590.880737,121.507767 
	C591.940857,109.471542 589.470337,107.889153 578.394226,112.602074 
	C578.317993,111.736244 578.049622,110.916092 578.211304,110.191971 
	C580.705261,99.021889 580.666809,87.805107 579.006348,76.537560 
	C576.332153,58.390949 567.112488,44.141003 552.194336,33.948826 
	C538.327759,24.475113 522.791626,20.897285 505.844391,22.817373 
	C491.063660,24.492001 478.167969,29.994875 467.535950,40.140186 
	C450.640228,56.262463 445.769806,76.834419 447.153290,99.362801 
	C447.421722,103.734657 448.333862,108.066978 448.992828,112.726677 
	C447.897949,112.482048 447.437836,112.384323 446.980164,112.276169 
	C444.231903,111.626701 441.019836,109.827194 438.884949,110.691071 
	C437.211456,111.368256 436.162506,115.312927 436.062469,117.854248 
	C435.640869,128.558899 440.379456,137.830521 445.011139,147.061295 
	C448.785187,154.582794 450.748474,155.252563 458.235657,151.908142 
	C458.915924,151.604294 459.717560,151.572205 461.546539,151.183731 
	C461.546539,168.870041 461.546539,186.032455 461.546539,203.194870 
	C462.050201,203.318100 462.553833,203.441330 463.057495,203.564560 
	C464.436584,201.596771 465.668671,199.503937 467.218719,197.681580 
	C476.921661,186.274338 491.361084,182.552475 500.851776,195.729538 
	C504.404541,200.662262 505.948914,207.159058 507.851624,213.120621 
	C509.081970,216.975555 509.301025,221.153275 509.981598,226.004990 
M545.875000,920.809692 
	C547.929138,948.197021 549.808411,975.598877 552.095825,1002.966736 
	C553.746704,1022.719421 556.186462,1042.380005 562.960388,1061.203735 
	C564.169434,1064.563477 565.341553,1067.936401 566.828003,1072.144897 
	C567.972351,1070.376099 568.680847,1069.515869 569.138611,1068.538330 
	C576.397339,1053.038818 583.520569,1037.474365 590.964722,1022.064880 
	C592.134155,1019.644226 594.624756,1016.422974 596.689270,1016.282227 
	C598.716125,1016.144104 601.496216,1019.097046 603.052002,1021.319214 
	C612.207825,1034.396606 621.096619,1047.660767 630.112488,1060.836670 
	C630.389038,1061.240723 631.072632,1061.366089 632.762573,1062.239868 
	C632.762573,1041.989624 632.689941,1022.687988 632.798035,1003.387451 
	C632.841797,995.565308 632.634033,987.660217 633.652344,979.939392 
	C637.633728,949.752136 642.541199,919.681641 646.194702,889.457825 
	C650.500244,853.839661 649.755859,818.304016 640.814331,783.299500 
	C639.037476,776.343384 636.504150,769.580566 633.973450,761.642639 
	C631.177185,765.185364 629.390686,767.543884 627.505676,769.820801 
	C618.453735,780.754700 606.795166,786.716370 592.718628,788.274536 
	C579.155151,789.775940 566.112732,787.621033 553.595825,782.575073 
	C549.305786,780.845703 547.897034,781.833191 546.524658,785.944092 
	C541.365784,801.397461 538.893799,817.268494 538.030762,833.478027 
	C536.476379,862.671265 541.686462,891.239685 545.875000,920.809692 
M378.218842,873.232361 
	C381.064148,894.843140 383.637115,916.494141 386.826904,938.053955 
	C390.436646,962.452209 394.315796,986.770874 393.075867,1011.593933 
	C392.611237,1020.895813 392.940582,1030.249268 393.194733,1039.571411 
	C393.393982,1046.879517 394.034973,1054.175537 394.479706,1061.476929 
	C394.914124,1061.615845 395.348572,1061.754761 395.783020,1061.893677 
	C404.716034,1048.488159 413.551636,1035.015747 422.672150,1021.739014 
	C424.308136,1019.357483 427.190216,1016.196228 429.368805,1016.292542 
	C431.463043,1016.385071 434.064301,1019.921021 435.268677,1022.493591 
	C439.213257,1030.919556 442.376007,1039.711060 446.310547,1048.142212 
	C449.988190,1056.022827 454.266571,1063.623169 458.844635,1072.432129 
	C460.163208,1069.191650 461.084625,1067.126221 461.854248,1065.005615 
	C472.509033,1035.647827 474.682098,1004.730774 476.710968,974.099182 
	C478.936157,940.502930 482.257690,907.108826 486.454315,873.724182 
	C490.117828,844.580444 489.092865,815.513184 479.823242,787.229492 
	C479.131592,785.119263 478.124481,783.112366 477.318207,781.186768 
	C444.909241,792.533386 415.145599,794.671387 392.181488,761.682007 
	C389.559296,769.839844 386.940918,776.795837 385.090820,783.950439 
	C377.587433,812.967834 376.702850,842.541077 378.218842,873.232361 
M523.243958,649.776855 
	C516.864502,657.197632 514.357910,665.633118 514.644043,675.548462 
	C515.177246,694.025940 515.142944,712.539307 514.651672,731.019348 
	C514.360352,741.976990 518.465210,750.766785 525.286987,758.691772 
	C538.916382,774.525208 556.526550,782.852234 577.046204,784.703369 
	C603.682678,787.106262 621.901855,777.594299 632.494934,756.122437 
	C640.701355,739.488342 644.983521,721.702393 645.797058,703.219177 
	C646.850830,679.278687 640.913391,656.248962 634.642212,633.524109 
	C629.674805,615.523804 616.704529,606.825500 598.029724,607.111633 
	C590.813599,607.222229 583.346069,608.327209 576.477661,610.506409 
	C554.640015,617.435120 537.831177,631.594910 523.243958,649.776855 
M495.682404,764.185120 
	C506.732727,753.821106 512.136414,741.513489 511.417084,725.928711 
	C510.557892,707.315430 511.318115,688.631592 511.077209,669.982117 
	C511.029327,666.273254 510.605652,661.954407 508.697052,658.981323 
	C492.787506,634.197937 471.813629,615.455627 442.495819,608.568909 
	C416.723602,602.514954 395.038147,611.468689 389.075684,641.648987 
	C387.303223,650.620667 385.399994,659.570129 383.359253,668.484558 
	C376.486145,698.507385 380.217407,727.391846 393.060608,755.117126 
	C399.836151,769.743774 410.850342,780.584473 427.003052,783.563171 
	C452.488037,788.262817 475.527008,782.077087 495.682404,764.185120 
M599.754456,1337.868652 
	C600.665955,1344.930908 598.551086,1352.413696 602.686340,1359.193726 
	C604.132019,1356.224731 604.921936,1353.251709 605.050415,1350.250244 
	C606.607910,1313.878784 614.262817,1279.152222 630.482300,1246.232422 
	C641.406616,1224.059814 648.828125,1200.523560 651.526184,1175.731079 
	C656.578735,1129.303467 647.827209,1086.531494 617.859192,1049.491333 
	C616.083618,1047.296753 612.616577,1044.804810 610.340881,1045.146240 
	C608.027649,1045.493164 605.199036,1048.860107 604.383728,1051.464233 
	C602.359070,1057.931274 601.083191,1064.674194 600.018677,1071.387695 
	C599.067871,1077.383423 598.802002,1083.487793 598.110596,1090.859619 
	C595.462585,1079.314087 593.443787,1069.105225 590.642151,1059.115723 
	C589.749939,1055.934448 586.777283,1053.336548 584.756592,1050.471802 
	C582.541260,1052.894653 579.776611,1055.005615 578.196533,1057.789185 
	C564.123352,1082.579590 557.274048,1109.556641 555.320618,1137.771973 
	C553.453979,1164.733643 556.407715,1190.885864 569.294006,1215.393555 
	C574.692993,1225.661621 578.851318,1236.625244 583.037720,1247.479370 
	C594.130005,1276.238159 598.346436,1306.332153 599.754456,1337.868652 
M389.117035,1232.380493 
	C396.360199,1250.069092 404.250397,1267.526367 410.679504,1285.505981 
	C418.374603,1307.025879 419.665863,1329.771118 421.060852,1352.400879 
	C421.206512,1354.763794 422.117981,1357.079590 422.674164,1359.417236 
	C423.291779,1359.362793 423.909393,1359.308350 424.527039,1359.254028 
	C424.916870,1357.265015 425.539825,1355.289429 425.655334,1353.284668 
	C426.105530,1345.470825 426.404602,1337.648315 426.742493,1329.828247 
	C428.343018,1292.784424 436.655609,1257.387817 452.472565,1223.775513 
	C456.929077,1214.305054 461.718781,1204.866089 464.901794,1194.946045 
	C473.245483,1168.942505 472.030396,1142.393433 467.639832,1115.839600 
	C464.049805,1094.127441 456.940033,1073.634644 446.070099,1054.489624 
	C445.163971,1052.893677 443.322632,1050.581909 442.119324,1050.698608 
	C440.388367,1050.866821 438.337036,1052.652222 437.338531,1054.301880 
	C435.815887,1056.817749 434.752533,1059.730957 434.070129,1062.611938 
	C432.499176,1069.244019 431.274231,1075.958008 429.910889,1082.639282 
	C429.424438,1085.023071 428.943726,1087.408081 428.460419,1089.792480 
	C427.132385,1086.431519 427.299316,1083.243042 426.762939,1080.177734 
	C424.992340,1070.058838 423.697601,1059.767944 420.791687,1049.966675 
	C418.746887,1043.069824 413.341614,1042.760132 408.799774,1048.370728 
	C395.889038,1064.319824 385.651398,1081.842773 380.053864,1101.637573 
	C367.522400,1145.953735 371.926300,1189.264526 389.117035,1232.380493 
M699.593079,533.857544 
	C703.809265,539.663330 709.166687,543.998169 715.981323,546.380432 
	C727.362793,550.359131 735.413635,546.727417 740.164917,535.593018 
	C744.209473,526.114807 744.086792,516.241333 743.652283,506.169678 
	C742.951050,489.916138 742.340149,473.621582 742.725220,457.368866 
	C743.097534,441.654968 742.928589,426.141235 739.038452,410.792999 
	C732.132629,383.546082 715.642639,366.201538 687.703003,360.596588 
	C676.210205,358.291046 667.978394,362.549347 663.553711,373.194763 
	C659.198242,383.673676 658.126160,394.787811 658.684998,406.000153 
	C659.998779,432.359131 667.039551,457.435913 676.611633,481.836060 
	C681.210815,493.559937 686.519897,505.006927 691.574280,516.550049 
	C694.028809,522.155457 696.637024,527.693542 699.593079,533.857544 
M342.604004,497.058929 
	C354.271149,473.624786 361.511200,448.775513 365.715881,423.042633 
	C368.368408,406.808929 368.688416,390.551788 363.046112,374.715790 
	C359.188538,363.888855 351.579376,358.556824 340.398010,360.323273 
	C320.668152,363.440216 304.700745,372.853546 294.876892,390.864532 
	C283.267426,412.149323 282.389008,435.265503 283.150177,458.827271 
	C283.653442,474.406403 282.841309,490.040619 282.273254,505.637573 
	C281.870605,516.692932 281.546692,527.627747 287.012512,537.775391 
	C292.206604,547.418518 300.330170,550.381287 310.536285,546.167725 
	C322.318878,541.303223 328.921722,531.932983 333.123291,520.322815 
	C335.887451,512.684753 339.167938,505.233551 342.604004,497.058929 
M416.996918,1337.526123 
	C415.416107,1304.545166 405.854797,1273.875366 390.229095,1244.932373 
	C391.291779,1254.495972 392.759064,1263.965210 394.327911,1273.417480 
	C398.937500,1301.190552 404.404449,1328.887329 401.972961,1357.290405 
	C401.784851,1359.487549 401.198395,1361.882935 400.056183,1363.727295 
	C394.029602,1373.458496 391.871735,1383.700195 395.872620,1394.641479 
	C397.158539,1398.158081 396.292542,1400.576660 394.188202,1403.231812 
	C390.374878,1408.043579 386.868866,1413.100952 383.004913,1417.869751 
	C381.485260,1419.745239 379.550140,1421.484009 377.450562,1422.646484 
	C373.600983,1424.778076 369.281372,1426.093140 365.530823,1428.364624 
	C358.452423,1432.651611 357.871063,1443.501343 364.565399,1446.573364 
	C370.849091,1449.457031 377.485107,1451.576538 383.980347,1453.994019 
	C388.962555,1455.848145 393.778320,1457.624512 397.117950,1462.388306 
	C401.171021,1468.169922 407.041565,1471.990479 414.077942,1472.889648 
	C420.794250,1473.748047 427.687866,1474.249878 434.414062,1473.736450 
	C442.588531,1473.112427 448.472443,1466.524170 448.877045,1458.442383 
	C449.099396,1454.001465 448.744537,1449.474976 448.126587,1445.060425 
	C446.803314,1435.606812 446.341492,1426.392456 449.244568,1416.974487 
	C450.743561,1412.111450 450.578949,1406.513916 450.162903,1401.328857 
	C449.312592,1390.731567 445.888428,1380.486572 449.499695,1369.459106 
	C451.079559,1364.634766 449.747620,1358.033081 447.732971,1353.048950 
	C444.733948,1345.629761 442.914978,1338.225220 443.020233,1330.357788 
	C443.182526,1318.227295 443.152313,1306.062012 444.111725,1293.983521 
	C445.119751,1281.292480 447.138153,1268.678711 448.829834,1256.046509 
	C449.724548,1249.365601 450.863464,1242.717407 451.892120,1236.054443 
	C449.203094,1239.931396 447.535706,1244.057373 445.914429,1248.201416 
	C436.643280,1271.898682 432.029175,1296.613281 430.080292,1321.871704 
	C429.186920,1333.449951 428.880524,1345.074829 427.890106,1356.642822 
	C427.728485,1358.530884 425.712524,1361.262939 423.993256,1361.795166 
	C420.908508,1362.750244 419.188293,1360.343018 418.870453,1357.253052 
	C418.226776,1350.994995 417.626282,1344.732666 416.996918,1337.526123 
M583.921448,1321.329346 
	C583.623169,1324.129150 583.120178,1326.925049 583.065125,1329.729614 
	C582.903809,1337.946289 581.743164,1345.829102 577.948792,1353.331909 
	C575.301208,1358.567505 574.141785,1364.330200 576.216125,1370.198364 
	C578.922241,1377.854126 578.585999,1385.604614 576.700134,1393.288208 
	C574.467957,1402.382446 574.944885,1411.202759 577.033752,1420.333008 
	C578.436340,1426.463623 578.102539,1433.053345 578.062561,1439.434570 
	C578.023132,1445.728882 577.092529,1452.018311 577.070068,1458.311646 
	C577.044861,1465.377319 581.157227,1471.030518 587.862061,1472.757202 
	C596.849976,1475.071899 606.117676,1475.322021 614.843140,1471.986328 
	C619.484314,1470.211914 624.457275,1467.425537 627.449707,1463.646362 
	C632.279236,1457.546997 638.352295,1454.918701 645.356506,1452.859619 
	C651.015869,1451.195923 656.618408,1448.988037 661.785889,1446.175781 
	C663.830994,1445.062744 665.463562,1441.787354 665.838135,1439.280518 
	C666.833496,1432.618408 659.157837,1424.935913 651.114807,1422.921143 
	C648.182007,1422.186523 645.145447,1420.182007 643.108398,1417.905029 
	C638.808350,1413.098633 634.965759,1407.847534 631.307678,1402.523193 
	C630.171204,1400.869019 629.316895,1398.088989 629.894226,1396.339600 
	C633.902954,1384.191895 631.940796,1373.079468 625.077820,1362.552856 
	C624.478638,1361.633789 624.037476,1360.419434 624.028381,1359.337891 
	C623.941589,1349.074707 622.988281,1338.698608 624.152405,1328.569580 
	C626.835388,1305.224976 630.548523,1281.998291 633.877075,1258.728638 
	C634.539001,1254.100952 635.349854,1249.494507 636.092041,1244.878296 
	C635.674744,1244.753662 635.257446,1244.628906 634.840088,1244.504150 
	C632.299500,1250.178467 629.826904,1255.884277 627.206360,1261.521484 
	C615.921509,1285.796631 610.767517,1311.522949 608.993652,1338.056152 
	C608.606323,1343.849487 608.693359,1349.723267 607.682495,1355.403442 
	C607.252441,1357.819580 604.945862,1361.101807 602.810425,1361.752197 
	C598.956299,1362.926270 598.130249,1359.201050 597.573303,1356.148926 
	C597.365479,1355.010132 597.138672,1353.864746 597.063904,1352.713013 
	C596.032166,1336.824707 595.423340,1320.896606 593.908142,1305.055176 
	C592.163574,1286.816772 587.466187,1269.159302 581.355347,1251.905396 
	C579.424561,1246.453613 577.057068,1241.156494 574.889465,1235.788696 
	C575.375305,1245.938477 577.162292,1255.707642 578.286438,1265.552734 
	C580.371887,1283.816162 582.070251,1302.124023 583.921448,1321.329346 
M817.069031,812.417419 
	C818.069946,816.779846 818.884949,821.196106 820.128418,825.488281 
	C821.196960,829.177002 823.626770,831.625977 827.854614,830.968018 
	C831.817261,830.351379 832.311401,827.095032 831.937134,824.096008 
	C831.015747,816.712036 829.789795,809.359497 828.470276,802.033203 
	C825.581726,785.995422 822.558960,769.981812 819.591125,753.958313 
	C820.158997,753.731384 820.726868,753.504456 821.294739,753.277527 
	C824.177429,757.817871 826.925781,762.450928 829.979065,766.873535 
	C833.307190,771.694153 837.440186,775.571594 843.892700,774.937195 
	C845.506348,774.778503 847.856506,773.863098 848.351013,772.667786 
	C848.963318,771.187927 848.419373,768.849060 847.640015,767.236511 
	C842.962463,757.558228 837.507080,748.213623 833.452148,738.291443 
	C830.676208,731.498718 827.070312,725.782166 822.121277,720.406982 
	C813.903564,711.481689 800.639282,707.865784 796.440918,694.808533 
	C788.637207,699.987915 781.235352,703.920349 772.523743,698.157104 
	C770.779297,707.435364 764.141296,709.242981 757.082092,709.382874 
	C756.817688,714.002930 756.384888,718.263916 756.364685,722.526917 
	C756.299561,736.253357 755.526733,750.054016 756.690857,763.683960 
	C757.600220,774.330872 760.795105,784.812866 763.338135,795.279785 
	C765.137939,802.687683 767.426636,809.985657 769.733765,817.257629 
	C770.814148,820.663147 773.931580,822.228821 776.829224,820.626099 
	C778.445190,819.732361 779.442200,816.315918 779.361694,814.085266 
	C779.238586,810.673340 777.753906,807.335083 777.185730,803.909424 
	C776.100830,797.368042 775.254639,790.787109 774.309326,784.222534 
	C774.849548,784.131897 775.389771,784.041199 775.929993,783.950562 
	C776.614563,787.125671 777.132019,790.347961 778.012695,793.467651 
	C781.702637,806.537537 785.306030,819.639893 789.481995,832.555420 
	C790.072754,834.382629 793.805969,836.524292 795.806091,836.275879 
	C799.463257,835.821777 800.371948,832.316406 799.748169,828.854858 
	C799.249390,826.087219 798.377563,823.389038 797.791565,820.634460 
	C795.497375,809.850525 793.250793,799.056519 790.986572,788.266235 
	C791.585083,788.138306 792.183655,788.010376 792.782166,787.882507 
	C795.190918,797.815674 797.541626,807.763367 800.028809,817.676880 
	C801.683289,824.271362 803.446838,830.841797 805.330383,837.374268 
	C806.281006,840.671509 808.996277,842.865723 812.084839,841.698486 
	C814.168945,840.910950 815.756470,837.975037 816.834351,835.659424 
	C817.527344,834.170654 817.161011,832.010010 816.807983,830.242676 
	C814.795593,820.170227 812.583679,810.137512 810.565308,800.066162 
	C809.508606,794.793396 808.709045,789.469116 807.793335,784.168152 
	C808.279724,784.077820 808.766052,783.987488 809.252441,783.897095 
	C811.822632,793.128967 814.392883,802.360779 817.069031,812.417419 
M202.282883,830.076843 
	C203.492493,827.926758 205.174820,825.908630 205.819290,823.600708 
	C207.468155,817.696045 208.508163,811.623901 210.063187,805.689941 
	C212.093903,797.940735 214.386002,790.260071 216.565643,782.549927 
	C217.738266,783.379700 217.968246,784.008057 217.856705,784.568420 
	C216.110016,793.345154 214.130234,802.080200 212.593414,810.892639 
	C211.144058,819.203491 209.847382,827.570129 209.192322,835.967529 
	C209.048035,837.816895 211.544327,840.844910 213.476547,841.554199 
	C214.848785,842.057983 217.719650,839.942261 219.176941,838.324829 
	C220.534805,836.817688 221.158218,834.486023 221.673462,832.410217 
	C224.230667,822.107483 226.624496,811.764343 229.118835,801.445862 
	C230.308029,796.526489 231.592667,791.630188 232.834076,786.723389 
	C233.760529,787.856750 233.799377,788.808960 233.612198,789.714417 
	C231.098297,801.874451 228.533218,814.023987 226.026230,826.185425 
	C225.175690,830.311401 224.047058,835.055237 229.511047,836.552856 
	C234.817490,838.007324 236.373016,833.126343 237.515518,829.531128 
	C240.679398,819.575073 243.405548,809.474426 246.092026,799.374390 
	C247.486664,794.131104 248.431412,788.768127 249.579376,783.459229 
	C250.163956,783.561951 250.748520,783.664612 251.333099,783.767334 
	C250.697815,788.592285 250.193436,793.438965 249.394196,798.236633 
	C248.388351,804.274414 246.943176,810.246216 246.151794,816.307068 
	C245.975647,817.656067 247.455093,820.133545 248.673126,820.522400 
	C250.209473,821.012817 252.990723,820.492065 253.931976,819.341553 
	C255.749573,817.119995 257.136719,814.274170 257.851562,811.470276 
	C260.677643,800.385071 262.636627,789.055359 265.905212,778.111328 
	C272.682770,755.418335 270.877930,732.565186 268.210938,709.233704 
	C261.361359,709.741638 256.161926,707.146790 253.639526,700.139282 
	C253.436646,699.575562 251.117462,699.079224 250.353348,699.527039 
	C246.070496,702.036987 241.884186,700.786682 237.829086,699.345886 
	C234.947983,698.322205 232.325089,696.571716 229.823349,695.268799 
	C227.364410,698.833008 225.483154,702.657898 222.602036,705.451538 
	C219.186920,708.762878 214.782150,711.025574 211.032913,714.025879 
	C202.341019,720.981628 195.497040,729.090881 191.641876,739.996277 
	C188.462753,748.989258 183.229401,757.245178 179.112473,765.925476 
	C178.129120,767.998779 176.800873,771.394104 177.703949,772.522522 
	C179.004044,774.146973 182.185028,774.761353 184.594025,774.837769 
	C186.350067,774.893494 188.568207,773.793701 189.856476,772.492432 
	C192.869370,769.449036 195.579391,766.074219 198.159622,762.643738 
	C200.330444,759.757507 202.145157,756.603577 204.117508,753.568176 
	C204.658417,753.780090 205.199310,753.992004 205.740204,754.203857 
	C203.679855,766.089966 201.575623,777.968628 199.571747,789.864197 
	C197.647003,801.290222 195.471878,812.691650 194.107849,824.187134 
	C193.415970,830.018188 195.692581,831.409485 202.282883,830.076843 
M381.771118,314.290863 
	C389.677521,306.677399 397.452820,298.921417 405.529022,291.492554 
	C412.850250,284.758179 412.513611,279.146118 403.693817,274.371857 
	C390.696625,267.336334 377.059875,263.623322 361.993225,265.942017 
	C348.145386,268.073120 334.926208,271.527496 323.599213,280.148743 
	C309.804901,290.647980 302.562531,305.099670 298.863403,321.686096 
	C294.824463,339.796356 296.420959,357.611755 300.977509,375.962952 
	C303.176575,374.335876 304.870972,373.060089 306.587952,371.815338 
	C318.945465,362.856934 332.021393,355.948242 347.991913,357.106201 
	C349.261322,357.198212 350.607697,356.773102 351.864502,356.404877 
	C358.952637,354.327881 361.139099,347.972961 364.390594,342.365662 
	C369.793762,333.047699 375.635498,323.984070 381.771118,314.290863 
M594.343506,239.212326 
	C580.030518,231.535110 568.738403,220.857559 561.216248,206.302277 
	C559.782410,203.527771 557.797729,200.963989 555.721375,198.607727 
	C544.297668,185.644058 528.725281,188.547836 524.146973,205.244034 
	C521.463684,215.029327 520.606262,225.544250 520.508240,235.746155 
	C520.406799,246.301270 525.713318,254.720642 534.867249,260.578796 
	C546.960693,268.318054 560.613953,270.816437 574.374878,273.566742 
	C598.300049,278.348541 619.798035,270.274841 641.439880,262.575836 
	C625.838501,254.873901 610.393799,247.249329 594.343506,239.212326 
M441.213409,274.732605 
	C455.010223,273.469421 468.628540,271.333557 481.489807,265.880371 
	C491.224335,261.752930 500.195801,256.316254 503.617950,245.650665 
	C508.429688,230.654175 507.162964,215.537903 500.694336,201.369064 
	C494.756012,188.361633 481.644165,186.803955 471.947357,197.473572 
	C468.070282,201.739548 464.894806,206.721451 461.867188,211.663666 
	C456.743896,220.026688 450.432739,227.148499 442.283142,232.654312 
	C426.359283,243.412369 409.155609,251.688965 391.478760,259.066986 
	C389.297760,259.977295 387.154724,260.978638 384.363342,262.217834 
	C407.911224,272.449066 420.373810,275.206299 441.213409,274.732605 
M283.672821,582.227356 
	C284.127869,572.988281 285.483337,563.679810 284.778717,554.530029 
	C284.106018,545.794373 281.096832,537.266724 275.397980,530.176086 
	C270.545380,524.138306 264.603638,524.309631 260.252716,530.739807 
	C258.419373,533.449280 257.127075,536.608765 256.031555,539.719604 
	C249.842529,557.293945 247.428345,575.613037 246.110153,594.054871 
	C243.863754,625.482910 240.262314,656.666687 231.926834,687.163269 
	C231.441483,688.938965 231.851212,691.622559 232.940567,693.042786 
	C236.393250,697.544128 241.491806,698.646545 246.858994,697.898376 
	C251.330719,697.275024 252.943771,693.606567 253.994339,689.805298 
	C263.828583,654.221619 273.619080,618.625916 283.672821,582.227356 
M741.089844,552.649719 
	C740.729919,556.786499 739.498169,561.070251 740.166504,565.033630 
	C742.594727,579.433105 744.914124,593.922302 748.641663,608.016113 
	C755.998108,635.830811 764.166931,663.433350 772.230408,691.056396 
	C774.236267,697.927856 779.195068,699.792358 786.518921,697.327759 
	C793.339600,695.032471 795.283325,691.364868 793.327393,684.472473 
	C787.491821,663.908813 783.914917,642.938538 781.834839,621.681152 
	C779.970703,602.630371 778.528259,583.508606 775.734131,564.590271 
	C774.169067,553.993591 770.996460,543.455505 767.155640,533.424194 
	C763.333801,523.442749 754.635254,522.896362 749.317749,532.072021 
	C745.786804,538.164795 743.877380,545.197327 741.089844,552.649719 
M735.858154,570.698975 
	C732.869995,562.023987 727.885071,555.168274 719.309692,551.057922 
	C713.375671,548.213562 707.690430,544.814209 702.052246,541.401489 
	C698.488525,539.244385 696.436523,539.918457 696.176331,544.242432 
	C695.937622,548.209778 696.141479,552.232849 696.489563,556.201660 
	C698.590881,580.165771 707.008850,602.101501 718.258667,623.092468 
	C732.080383,648.882324 746.138916,674.560425 754.346069,702.887207 
	C755.420593,706.595947 758.192627,707.187195 761.419128,706.548828 
	C767.682312,705.309753 771.041687,699.832153 769.167603,692.699524 
	C765.662354,679.358704 761.530457,666.183899 757.911377,652.871521 
	C750.540283,625.757996 743.336670,598.599060 735.858154,570.698975 
M434.178741,303.394775 
	C432.182007,300.538391 430.343079,297.554474 428.157684,294.850586 
	C422.522339,287.878296 415.189758,286.905029 409.073761,292.509521 
	C401.474304,299.473389 393.369354,306.088379 386.868164,313.993469 
	C379.756134,322.641327 373.846008,332.366333 368.143372,342.052460 
	C364.519257,348.208252 366.475891,352.865875 372.897400,355.861115 
	C377.096832,357.819916 381.451996,359.739868 385.946167,360.720367 
	C404.567383,364.783203 421.065155,361.131683 433.546692,345.772797 
	C438.608887,339.543579 443.423248,332.449707 441.784821,324.033936 
	C440.446442,317.159515 437.028351,310.689972 434.178741,303.394775 
M622.131592,508.727264 
	C617.020569,517.076843 612.167480,525.598022 606.749451,533.743347 
	C591.290894,556.983337 575.486084,580.002075 563.813721,605.499207 
	C562.982605,607.314453 562.439880,609.261719 561.346069,612.309448 
	C586.237305,602.166992 609.590027,596.729614 631.275574,618.318481 
	C628.602417,579.948059 618.269836,543.370605 625.275696,505.759796 
	C624.842468,505.729492 624.409241,505.699219 623.976013,505.668915 
	C623.477051,506.478851 622.978088,507.288788 622.131592,508.727264 
M431.248138,603.101807 
	C442.370392,605.696838 453.492645,608.291870 464.721527,610.911743 
	C449.042389,573.623108 423.201233,542.233459 402.102081,507.691254 
	C407.167480,544.805298 397.476715,580.759583 394.834229,618.889954 
	C405.038940,607.448669 416.839386,603.142212 431.248138,603.101807 
M377.066010,919.407776 
	C378.753723,925.598694 380.441467,931.789673 382.129181,937.980591 
	C381.287811,924.972107 379.506287,912.204956 377.862640,899.420105 
	C375.197357,878.688416 373.932434,857.941711 374.767578,836.970276 
	C375.806458,810.882935 380.021790,785.584351 388.992859,761.047913 
	C389.795685,758.852173 389.350128,755.882263 388.657806,753.513428 
	C385.918945,744.142090 382.584900,734.939758 380.007172,725.528015 
	C378.518799,720.093689 378.054169,714.378845 377.128815,708.790283 
	C375.780640,710.428101 375.293488,711.995239 375.014923,713.598694 
	C373.258606,723.708557 371.068451,733.772583 369.924744,743.953247 
	C367.652222,764.181519 364.657990,784.458496 364.392212,804.747131 
	C364.110748,826.235413 365.900635,847.841736 368.205383,869.243713 
	C369.989746,885.813293 373.961609,902.147217 377.066010,919.407776 
M650.524963,821.043274 
	C651.004395,827.654907 651.846008,834.265015 651.875427,840.878601 
	C651.916077,850.005676 651.710999,859.166016 650.952393,868.257141 
	C649.658508,883.760315 647.960449,899.232910 646.214478,914.693787 
	C645.372559,922.149597 644.035217,929.549500 642.922180,936.974670 
	C655.312683,900.054260 660.084595,861.883850 661.873169,823.295532 
	C663.642761,785.115051 655.163635,725.752136 649.062256,708.855286 
	C648.703308,709.801697 648.227234,710.545532 648.153442,711.327454 
	C646.754395,726.148987 642.761353,740.271484 637.269653,754.075195 
	C636.296204,756.522034 636.537720,760.030945 637.490112,762.572815 
	C644.465515,781.191101 648.434082,800.432739 650.524963,821.043274 
M484.027557,789.567139 
	C486.357697,803.080627 489.647186,816.517395 490.736206,830.130127 
	C491.737000,842.639771 490.955841,855.388611 489.892975,867.941772 
	C488.596405,883.255249 486.156311,898.470764 484.275787,913.736633 
	C483.729370,918.172607 483.388550,922.634399 482.984283,927.087158 
	C482.600830,931.310730 482.257782,935.537842 481.896942,939.763428 
	C501.627167,881.445312 509.971954,821.756897 504.822815,760.459717 
	C499.643524,764.773621 494.573303,769.522034 488.976074,773.535400 
	C480.612854,779.532104 480.455048,779.312012 484.027557,789.567139 
M522.592468,760.961121 
	C522.090942,760.418518 521.589478,759.875977 521.490479,759.768921 
	C515.391968,821.387390 524.891113,881.252136 543.526062,939.977722 
	C543.965515,938.663330 544.084961,937.371399 543.947021,936.107605 
	C542.618225,923.936157 541.812134,911.673279 539.764221,899.622131 
	C535.939941,877.117432 534.093872,854.517334 535.074341,831.741150 
	C535.781982,815.300842 538.206299,799.071716 544.238342,783.623840 
	C545.623779,780.075867 544.544922,778.376892 541.685181,776.288086 
	C535.282715,771.611450 529.231934,766.453491 522.592468,760.961121 
M420.521820,1031.015869 
	C418.392639,1034.426758 416.263458,1037.837769 414.298309,1040.985840 
	C427.581635,1046.137207 425.553131,1058.696533 429.084442,1068.807861 
	C432.724548,1060.802856 432.532654,1050.917480 442.382385,1046.855469 
	C438.157074,1036.930542 434.081635,1027.357544 430.006195,1017.784668 
	C429.406403,1017.881226 428.806580,1017.977783 428.206757,1018.074341 
	C425.758392,1022.171692 423.310028,1026.269043 420.521820,1031.015869 
M597.949402,1066.119385 
	C599.038086,1061.291626 600.001099,1056.431152 601.248596,1051.644775 
	C602.653687,1046.254272 605.295837,1041.896973 611.927429,1041.511719 
	C607.003540,1033.394287 602.344543,1025.713501 596.888428,1016.718628 
	C590.592163,1026.889526 588.927124,1037.641479 583.319397,1047.519287 
	C590.100952,1048.280518 591.610413,1053.095459 593.115967,1057.924072 
	C594.101318,1061.084106 595.081543,1064.246826 596.161011,1067.374878 
	C596.301086,1067.780884 597.021729,1067.986694 597.473389,1068.285156 
	C597.624390,1067.820801 597.775391,1067.356567 597.949402,1066.119385 
M268.485382,505.987732 
	C265.866638,512.060425 263.247894,518.133118 260.629150,524.205811 
	C260.930084,524.570374 261.231018,524.934937 261.531952,525.299500 
	C270.509033,519.765442 275.095398,526.347412 279.096161,530.716003 
	C279.730316,512.612244 280.384430,493.937988 281.046448,475.038361 
	C276.858337,485.422363 272.846680,495.368896 268.485382,505.987732 
M759.781677,510.806732 
	C754.867676,499.320587 749.953613,487.834412 745.218567,476.766541 
	C742.975464,494.667969 750.055481,512.891602 744.500427,532.500671 
	C748.513733,528.903442 750.849731,525.560181 754.007874,524.333374 
	C757.111877,523.127625 761.050537,524.070496 764.956909,524.070496 
	C763.273804,519.833008 761.627380,515.687866 759.781677,510.806732 
M735.498108,563.735718 
	C736.072021,563.417847 737.076233,563.182739 737.155640,562.769775 
	C738.432678,556.127747 739.591980,549.463196 740.726379,543.093811 
	C735.706421,545.924011 730.813782,548.682434 726.466797,551.133240 
	C729.084290,554.765442 732.106445,558.959229 735.498108,563.735718 
M356.400574,360.197266 
	C358.807495,362.523926 361.214417,364.850616 364.326447,367.858917 
	C363.778442,362.218109 363.316650,357.464844 362.759094,351.725861 
	C359.946838,355.020599 357.886353,357.434601 356.400574,360.197266 
M642.530396,939.635193 
	C642.479248,939.840698 642.428101,940.046265 642.376953,940.251770 
	C642.499390,940.121155 642.621887,939.990540 642.530396,939.635193 
M636.253479,1242.195068 
	C636.412476,1242.139038 636.571472,1242.083008 636.730408,1242.026978 
	C636.571411,1241.974243 636.412415,1241.921509 636.253479,1242.195068 
M401.422180,505.502319 
	C401.422180,505.502319 401.531586,505.436981 401.422180,505.502319 
M744.483093,533.578674 
	C744.483093,533.578674 744.418091,533.461792 744.483093,533.578674 
M741.486755,540.585632 
	C741.486755,540.585632 741.438660,540.493652 741.486755,540.585632 
z"/>
<path fill="#DE4E05" opacity="1.000000" stroke="none" 
	d="
M545.833130,920.362427 
	C541.686462,891.239685 536.476379,862.671265 538.030762,833.478027 
	C538.893799,817.268494 541.365784,801.397461 546.524658,785.944092 
	C547.897034,781.833191 549.305786,780.845703 553.595825,782.575073 
	C566.112732,787.621033 579.155151,789.775940 592.718628,788.274536 
	C606.795166,786.716370 618.453735,780.754700 627.505676,769.820801 
	C629.390686,767.543884 631.177185,765.185364 633.973450,761.642639 
	C636.504150,769.580566 639.037476,776.343384 640.814331,783.299500 
	C649.755859,818.304016 650.500244,853.839661 646.194702,889.457825 
	C642.541199,919.681641 637.633728,949.752136 633.652344,979.939392 
	C632.634033,987.660217 632.841797,995.565308 632.798035,1003.387451 
	C632.689941,1022.687988 632.762573,1041.989624 632.762573,1062.239868 
	C631.072632,1061.366089 630.389038,1061.240723 630.112488,1060.836670 
	C621.096619,1047.660767 612.207825,1034.396606 603.052002,1021.319214 
	C601.496216,1019.097046 598.716125,1016.144104 596.689270,1016.282227 
	C594.624756,1016.422974 592.134155,1019.644226 590.964722,1022.064880 
	C583.520569,1037.474365 576.397339,1053.038818 569.138611,1068.538330 
	C568.680847,1069.515869 567.972351,1070.376099 566.828003,1072.144897 
	C565.341553,1067.936401 564.169434,1064.563477 562.960388,1061.203735 
	C556.186462,1042.380005 553.746704,1022.719421 552.095825,1002.966736 
	C549.808411,975.598877 547.929138,948.197021 545.833130,920.362427 
z"/>
<path fill="#DE4E05" opacity="1.000000" stroke="none" 
	d="
M378.199158,872.756958 
	C376.702850,842.541077 377.587433,812.967834 385.090820,783.950439 
	C386.940918,776.795837 389.559296,769.839844 392.181488,761.682007 
	C415.145599,794.671387 444.909241,792.533386 477.318207,781.186768 
	C478.124481,783.112366 479.131592,785.119263 479.823242,787.229492 
	C489.092865,815.513184 490.117828,844.580444 486.454315,873.724182 
	C482.257690,907.108826 478.936157,940.502930 476.710968,974.099182 
	C474.682098,1004.730774 472.509033,1035.647827 461.854248,1065.005615 
	C461.084625,1067.126221 460.163208,1069.191650 458.844635,1072.432129 
	C454.266571,1063.623169 449.988190,1056.022827 446.310547,1048.142212 
	C442.376007,1039.711060 439.213257,1030.919556 435.268677,1022.493591 
	C434.064301,1019.921021 431.463043,1016.385071 429.368805,1016.292542 
	C427.190216,1016.196228 424.308136,1019.357483 422.672150,1021.739014 
	C413.551636,1035.015747 404.716034,1048.488159 395.783020,1061.893677 
	C395.348572,1061.754761 394.914124,1061.615845 394.479706,1061.476929 
	C394.034973,1054.175537 393.393982,1046.879517 393.194733,1039.571411 
	C392.940582,1030.249268 392.611237,1020.895813 393.075867,1011.593933 
	C394.315796,986.770874 390.436646,962.452209 386.826904,938.053955 
	C383.637115,916.494141 381.064148,894.843140 378.199158,872.756958 
z"/>
<path fill="#D1D0D0" opacity="1.000000" stroke="none" 
	d="
M509.973236,225.186340 
	C509.301025,221.153275 509.081970,216.975555 507.851624,213.120621 
	C505.948914,207.159058 504.404541,200.662262 500.851776,195.729538 
	C491.361084,182.552475 476.921661,186.274338 467.218719,197.681580 
	C465.668671,199.503937 464.436584,201.596771 463.057495,203.564560 
	C462.553833,203.441330 462.050201,203.318100 461.546539,203.194870 
	C461.546539,186.032455 461.546539,168.870041 461.546539,151.183731 
	C459.717560,151.572205 458.915924,151.604294 458.235657,151.908142 
	C450.748474,155.252563 448.785187,154.582794 445.011139,147.061295 
	C440.379456,137.830521 435.640869,128.558899 436.062469,117.854248 
	C436.162506,115.312927 437.211456,111.368256 438.884949,110.691071 
	C441.019836,109.827194 444.231903,111.626701 446.980164,112.276169 
	C447.437836,112.384323 447.897949,112.482048 448.992828,112.726677 
	C448.333862,108.066978 447.421722,103.734657 447.153290,99.362801 
	C445.769806,76.834419 450.640228,56.262463 467.535950,40.140186 
	C478.167969,29.994875 491.063660,24.492001 505.844391,22.817373 
	C522.791626,20.897285 538.327759,24.475113 552.194336,33.948826 
	C567.112488,44.141003 576.332153,58.390949 579.006348,76.537560 
	C580.666809,87.805107 580.705261,99.021889 578.211304,110.191971 
	C578.049622,110.916092 578.317993,111.736244 578.394226,112.602074 
	C589.470337,107.889153 591.940857,109.471542 590.880737,121.507767 
	C589.912964,132.495895 584.729126,142.108566 579.020874,151.311584 
	C576.994690,154.578293 573.749451,155.047501 570.331360,152.819916 
	C569.277893,152.133362 568.017822,151.763855 565.642517,150.714920 
	C565.642517,169.046692 565.642517,186.535934 565.642517,202.702362 
	C561.265076,199.050415 556.888367,195.114761 552.219116,191.563675 
	C542.907166,184.481705 530.865234,186.218201 525.071899,196.380676 
	C521.635376,202.408859 520.222778,209.615067 518.101990,216.355087 
	C517.415771,218.535980 517.370972,220.918671 516.613770,223.634384 
	C514.120972,224.435257 512.047119,224.810791 509.973236,225.186340 
z"/>
<path fill="#9042CD" opacity="1.000000" stroke="none" 
	d="
M523.467773,649.497131 
	C537.831177,631.594910 554.640015,617.435120 576.477661,610.506409 
	C583.346069,608.327209 590.813599,607.222229 598.029724,607.111633 
	C616.704529,606.825500 629.674805,615.523804 634.642212,633.524109 
	C640.913391,656.248962 646.850830,679.278687 645.797058,703.219177 
	C644.983521,721.702393 640.701355,739.488342 632.494934,756.122437 
	C621.901855,777.594299 603.682678,787.106262 577.046204,784.703369 
	C556.526550,782.852234 538.916382,774.525208 525.286987,758.691772 
	C518.465210,750.766785 514.360352,741.976990 514.651672,731.019348 
	C515.142944,712.539307 515.177246,694.025940 514.644043,675.548462 
	C514.357910,665.633118 516.864502,657.197632 523.467773,649.497131 
z"/>
<path fill="#9042CD" opacity="1.000000" stroke="none" 
	d="
M495.431824,764.437195 
	C475.527008,782.077087 452.488037,788.262817 427.003052,783.563171 
	C410.850342,780.584473 399.836151,769.743774 393.060608,755.117126 
	C380.217407,727.391846 376.486145,698.507385 383.359253,668.484558 
	C385.399994,659.570129 387.303223,650.620667 389.075684,641.648987 
	C395.038147,611.468689 416.723602,602.514954 442.495819,608.568909 
	C471.813629,615.455627 492.787506,634.197937 508.697052,658.981323 
	C510.605652,661.954407 511.029327,666.273254 511.077209,669.982117 
	C511.318115,688.631592 510.557892,707.315430 511.417084,725.928711 
	C512.136414,741.513489 506.732727,753.821106 495.431824,764.437195 
z"/>
<path fill="#5DC845" opacity="1.000000" stroke="none" 
	d="
M472.047882,607.993835 
	C468.977448,612.798645 467.904663,609.200317 466.503052,606.702454 
	C457.061401,589.876709 447.906342,572.879761 438.040833,556.305908 
	C431.575958,545.444946 423.945312,535.284851 417.062744,524.664368 
	C396.601105,493.089935 383.764771,458.424469 376.212616,421.749451 
	C372.824249,405.294647 370.239075,388.673462 367.367279,372.114288 
	C366.942169,369.662903 366.835022,367.139313 366.777405,364.644592 
	C366.632751,358.379883 368.632080,356.931824 374.244141,359.538818 
	C385.455658,364.746826 397.045319,366.828308 409.246613,364.193146 
	C423.870636,361.034729 434.426727,352.599609 441.153503,339.274384 
	C442.089874,337.419464 443.226410,335.665588 445.192657,333.747437 
	C453.798584,361.228058 463.266693,388.111328 478.769897,413.130402 
	C479.984467,417.770813 481.709015,421.737427 481.866730,425.765350 
	C483.596405,469.944611 481.248566,513.917236 475.585358,557.783875 
	C473.440735,574.395874 473.171783,591.250061 472.047882,607.993835 
z"/>
<path fill="#5DC845" opacity="1.000000" stroke="none" 
	d="
M659.171753,359.966766 
	C657.446594,373.964691 656.455383,388.101196 653.844543,401.931915 
	C648.290588,431.352997 641.151428,460.367279 629.013550,487.962036 
	C618.622803,511.585114 603.368408,532.202576 589.785095,553.889587 
	C579.216125,570.764038 570.090027,588.540283 560.226440,605.860840 
	C559.093506,607.850403 558.722656,612.250793 554.531982,607.982544 
	C553.558105,593.480347 553.408142,579.617493 551.594604,565.975891 
	C546.105286,524.685181 543.155884,483.293610 543.418335,441.618073 
	C543.514099,426.399017 546.358582,412.723267 554.569885,399.536530 
	C564.970337,382.834015 571.502747,364.226746 576.550415,344.823761 
	C577.760376,341.098358 578.758545,337.661926 580.168823,332.807129 
	C581.840576,335.029907 583.159546,336.312103 583.921509,337.867249 
	C595.779724,362.067719 621.517700,371.754913 646.237976,361.454102 
	C649.910400,359.923859 653.995117,359.382965 657.980469,358.627563 
	C658.438477,359.236115 658.805115,359.601440 659.171753,359.966766 
z"/>
<path fill="#1D59BE" opacity="1.000000" stroke="none" 
	d="
M599.732788,1337.400513 
	C598.346436,1306.332153 594.130005,1276.238159 583.037720,1247.479370 
	C578.851318,1236.625244 574.692993,1225.661621 569.294006,1215.393555 
	C556.407715,1190.885864 553.453979,1164.733643 555.320618,1137.771973 
	C557.274048,1109.556641 564.123352,1082.579590 578.196533,1057.789185 
	C579.776611,1055.005615 582.541260,1052.894653 584.756592,1050.471802 
	C586.777283,1053.336548 589.749939,1055.934448 590.642151,1059.115723 
	C593.443787,1069.105225 595.462585,1079.314087 598.110596,1090.859619 
	C598.802002,1083.487793 599.067871,1077.383423 600.018677,1071.387695 
	C601.083191,1064.674194 602.359070,1057.931274 604.383728,1051.464233 
	C605.199036,1048.860107 608.027649,1045.493164 610.340881,1045.146240 
	C612.616577,1044.804810 616.083618,1047.296753 617.859192,1049.491333 
	C647.827209,1086.531494 656.578735,1129.303467 651.526184,1175.731079 
	C648.828125,1200.523560 641.406616,1224.059814 630.482300,1246.232422 
	C614.262817,1279.152222 606.607910,1313.878784 605.050415,1350.250244 
	C604.921936,1353.251709 604.132019,1356.224731 602.686340,1359.193726 
	C598.551086,1352.413696 600.665955,1344.930908 599.732788,1337.400513 
z"/>
<path fill="#1D59BE" opacity="1.000000" stroke="none" 
	d="
M388.997894,1232.016724 
	C371.926300,1189.264526 367.522400,1145.953735 380.053864,1101.637573 
	C385.651398,1081.842773 395.889038,1064.319824 408.799774,1048.370728 
	C413.341614,1042.760132 418.746887,1043.069824 420.791687,1049.966675 
	C423.697601,1059.767944 424.992340,1070.058838 426.762939,1080.177734 
	C427.299316,1083.243042 427.132385,1086.431519 428.460419,1089.792480 
	C428.943726,1087.408081 429.424438,1085.023071 429.910889,1082.639282 
	C431.274231,1075.958008 432.499176,1069.244019 434.070129,1062.611938 
	C434.752533,1059.730957 435.815887,1056.817749 437.338531,1054.301880 
	C438.337036,1052.652222 440.388367,1050.866821 442.119324,1050.698608 
	C443.322632,1050.581909 445.163971,1052.893677 446.070099,1054.489624 
	C456.940033,1073.634644 464.049805,1094.127441 467.639832,1115.839600 
	C472.030396,1142.393433 473.245483,1168.942505 464.901794,1194.946045 
	C461.718781,1204.866089 456.929077,1214.305054 452.472565,1223.775513 
	C436.655609,1257.387817 428.343018,1292.784424 426.742493,1329.828247 
	C426.404602,1337.648315 426.105530,1345.470825 425.655334,1353.284668 
	C425.539825,1355.289429 424.916870,1357.265015 424.527039,1359.254028 
	C423.909393,1359.308350 423.291779,1359.362793 422.674164,1359.417236 
	C422.117981,1357.079590 421.206512,1354.763794 421.060852,1352.400879 
	C419.665863,1329.771118 418.374603,1307.025879 410.679504,1285.505981 
	C404.250397,1267.526367 396.360199,1250.069092 388.997894,1232.016724 
z"/>
<path fill="#06BECA" opacity="1.000000" stroke="none" 
	d="
M699.384399,533.559814 
	C696.637024,527.693542 694.028809,522.155457 691.574280,516.550049 
	C686.519897,505.006927 681.210815,493.559937 676.611633,481.836060 
	C667.039551,457.435913 659.998779,432.359131 658.684998,406.000153 
	C658.126160,394.787811 659.198242,383.673676 663.553711,373.194763 
	C667.978394,362.549347 676.210205,358.291046 687.703003,360.596588 
	C715.642639,366.201538 732.132629,383.546082 739.038452,410.792999 
	C742.928589,426.141235 743.097534,441.654968 742.725220,457.368866 
	C742.340149,473.621582 742.951050,489.916138 743.652283,506.169678 
	C744.086792,516.241333 744.209473,526.114807 740.164917,535.593018 
	C735.413635,546.727417 727.362793,550.359131 715.981323,546.380432 
	C709.166687,543.998169 703.809265,539.663330 699.384399,533.559814 
z"/>
<path fill="#06BECA" opacity="1.000000" stroke="none" 
	d="
M342.410614,497.378815 
	C339.167938,505.233551 335.887451,512.684753 333.123291,520.322815 
	C328.921722,531.932983 322.318878,541.303223 310.536285,546.167725 
	C300.330170,550.381287 292.206604,547.418518 287.012512,537.775391 
	C281.546692,527.627747 281.870605,516.692932 282.273254,505.637573 
	C282.841309,490.040619 283.653442,474.406403 283.150177,458.827271 
	C282.389008,435.265503 283.267426,412.149323 294.876892,390.864532 
	C304.700745,372.853546 320.668152,363.440216 340.398010,360.323273 
	C351.579376,358.556824 359.188538,363.888855 363.046112,374.715790 
	C368.688416,390.551788 368.368408,406.808929 365.715881,423.042633 
	C361.511200,448.775513 354.271149,473.624786 342.410614,497.378815 
z"/>
<path fill="#D2D2D2" opacity="1.000000" stroke="none" 
	d="
M417.002441,1337.999023 
	C417.626282,1344.732666 418.226776,1350.994995 418.870453,1357.253052 
	C419.188293,1360.343018 420.908508,1362.750244 423.993256,1361.795166 
	C425.712524,1361.262939 427.728485,1358.530884 427.890106,1356.642822 
	C428.880524,1345.074829 429.186920,1333.449951 430.080292,1321.871704 
	C432.029175,1296.613281 436.643280,1271.898682 445.914429,1248.201416 
	C447.535706,1244.057373 449.203094,1239.931396 451.892120,1236.054443 
	C450.863464,1242.717407 449.724548,1249.365601 448.829834,1256.046509 
	C447.138153,1268.678711 445.119751,1281.292480 444.111725,1293.983521 
	C443.152313,1306.062012 443.182526,1318.227295 443.020233,1330.357788 
	C442.914978,1338.225220 444.733948,1345.629761 447.732971,1353.048950 
	C449.747620,1358.033081 451.079559,1364.634766 449.499695,1369.459106 
	C445.888428,1380.486572 449.312592,1390.731567 450.162903,1401.328857 
	C450.578949,1406.513916 450.743561,1412.111450 449.244568,1416.974487 
	C446.341492,1426.392456 446.803314,1435.606812 448.126587,1445.060425 
	C448.744537,1449.474976 449.099396,1454.001465 448.877045,1458.442383 
	C448.472443,1466.524170 442.588531,1473.112427 434.414062,1473.736450 
	C427.687866,1474.249878 420.794250,1473.748047 414.077942,1472.889648 
	C407.041565,1471.990479 401.171021,1468.169922 397.117950,1462.388306 
	C393.778320,1457.624512 388.962555,1455.848145 383.980347,1453.994019 
	C377.485107,1451.576538 370.849091,1449.457031 364.565399,1446.573364 
	C357.871063,1443.501343 358.452423,1432.651611 365.530823,1428.364624 
	C369.281372,1426.093140 373.600983,1424.778076 377.450562,1422.646484 
	C379.550140,1421.484009 381.485260,1419.745239 383.004913,1417.869751 
	C386.868866,1413.100952 390.374878,1408.043579 394.188202,1403.231812 
	C396.292542,1400.576660 397.158539,1398.158081 395.872620,1394.641479 
	C391.871735,1383.700195 394.029602,1373.458496 400.056183,1363.727295 
	C401.198395,1361.882935 401.784851,1359.487549 401.972961,1357.290405 
	C404.404449,1328.887329 398.937500,1301.190552 394.327911,1273.417480 
	C392.759064,1263.965210 391.291779,1254.495972 390.229095,1244.932373 
	C405.854797,1273.875366 415.416107,1304.545166 417.002441,1337.999023 
z"/>
<path fill="#D2D2D2" opacity="1.000000" stroke="none" 
	d="
M583.925659,1320.871338 
	C582.070251,1302.124023 580.371887,1283.816162 578.286438,1265.552734 
	C577.162292,1255.707642 575.375305,1245.938477 574.889465,1235.788696 
	C577.057068,1241.156494 579.424561,1246.453613 581.355347,1251.905396 
	C587.466187,1269.159302 592.163574,1286.816772 593.908142,1305.055176 
	C595.423340,1320.896606 596.032166,1336.824707 597.063904,1352.713013 
	C597.138672,1353.864746 597.365479,1355.010132 597.573303,1356.148926 
	C598.130249,1359.201050 598.956299,1362.926270 602.810425,1361.752197 
	C604.945862,1361.101807 607.252441,1357.819580 607.682495,1355.403442 
	C608.693359,1349.723267 608.606323,1343.849487 608.993652,1338.056152 
	C610.767517,1311.522949 615.921509,1285.796631 627.206360,1261.521484 
	C629.826904,1255.884277 632.299500,1250.178467 634.840088,1244.504150 
	C635.257446,1244.628906 635.674744,1244.753662 636.092041,1244.878296 
	C635.349854,1249.494507 634.539001,1254.100952 633.877075,1258.728638 
	C630.548523,1281.998291 626.835388,1305.224976 624.152405,1328.569580 
	C622.988281,1338.698608 623.941589,1349.074707 624.028381,1359.337891 
	C624.037476,1360.419434 624.478638,1361.633789 625.077820,1362.552856 
	C631.940796,1373.079468 633.902954,1384.191895 629.894226,1396.339600 
	C629.316895,1398.088989 630.171204,1400.869019 631.307678,1402.523193 
	C634.965759,1407.847534 638.808350,1413.098633 643.108398,1417.905029 
	C645.145447,1420.182007 648.182007,1422.186523 651.114807,1422.921143 
	C659.157837,1424.935913 666.833496,1432.618408 665.838135,1439.280518 
	C665.463562,1441.787354 663.830994,1445.062744 661.785889,1446.175781 
	C656.618408,1448.988037 651.015869,1451.195923 645.356506,1452.859619 
	C638.352295,1454.918701 632.279236,1457.546997 627.449707,1463.646362 
	C624.457275,1467.425537 619.484314,1470.211914 614.843140,1471.986328 
	C606.117676,1475.322021 596.849976,1475.071899 587.862061,1472.757202 
	C581.157227,1471.030518 577.044861,1465.377319 577.070068,1458.311646 
	C577.092529,1452.018311 578.023132,1445.728882 578.062561,1439.434570 
	C578.102539,1433.053345 578.436340,1426.463623 577.033752,1420.333008 
	C574.944885,1411.202759 574.467957,1402.382446 576.700134,1393.288208 
	C578.585999,1385.604614 578.922241,1377.854126 576.216125,1370.198364 
	C574.141785,1364.330200 575.301208,1358.567505 577.948792,1353.331909 
	C581.743164,1345.829102 582.903809,1337.946289 583.065125,1329.729614 
	C583.120178,1326.925049 583.623169,1324.129150 583.925659,1320.871338 
z"/>
<path fill="#D2D1D1" opacity="1.000000" stroke="none" 
	d="
M817.016052,812.005005 
	C814.392883,802.360779 811.822632,793.128967 809.252441,783.897095 
	C808.766052,783.987488 808.279724,784.077820 807.793335,784.168152 
	C808.709045,789.469116 809.508606,794.793396 810.565308,800.066162 
	C812.583679,810.137512 814.795593,820.170227 816.807983,830.242676 
	C817.161011,832.010010 817.527344,834.170654 816.834351,835.659424 
	C815.756470,837.975037 814.168945,840.910950 812.084839,841.698486 
	C808.996277,842.865723 806.281006,840.671509 805.330383,837.374268 
	C803.446838,830.841797 801.683289,824.271362 800.028809,817.676880 
	C797.541626,807.763367 795.190918,797.815674 792.782166,787.882507 
	C792.183655,788.010376 791.585083,788.138306 790.986572,788.266235 
	C793.250793,799.056519 795.497375,809.850525 797.791565,820.634460 
	C798.377563,823.389038 799.249390,826.087219 799.748169,828.854858 
	C800.371948,832.316406 799.463257,835.821777 795.806091,836.275879 
	C793.805969,836.524292 790.072754,834.382629 789.481995,832.555420 
	C785.306030,819.639893 781.702637,806.537537 778.012695,793.467651 
	C777.132019,790.347961 776.614563,787.125671 775.929993,783.950562 
	C775.389771,784.041199 774.849548,784.131897 774.309326,784.222534 
	C775.254639,790.787109 776.100830,797.368042 777.185730,803.909424 
	C777.753906,807.335083 779.238586,810.673340 779.361694,814.085266 
	C779.442200,816.315918 778.445190,819.732361 776.829224,820.626099 
	C773.931580,822.228821 770.814148,820.663147 769.733765,817.257629 
	C767.426636,809.985657 765.137939,802.687683 763.338135,795.279785 
	C760.795105,784.812866 757.600220,774.330872 756.690857,763.683960 
	C755.526733,750.054016 756.299561,736.253357 756.364685,722.526917 
	C756.384888,718.263916 756.817688,714.002930 757.082092,709.382874 
	C764.141296,709.242981 770.779297,707.435364 772.523743,698.157104 
	C781.235352,703.920349 788.637207,699.987915 796.440918,694.808533 
	C800.639282,707.865784 813.903564,711.481689 822.121277,720.406982 
	C827.070312,725.782166 830.676208,731.498718 833.452148,738.291443 
	C837.507080,748.213623 842.962463,757.558228 847.640015,767.236511 
	C848.419373,768.849060 848.963318,771.187927 848.351013,772.667786 
	C847.856506,773.863098 845.506348,774.778503 843.892700,774.937195 
	C837.440186,775.571594 833.307190,771.694153 829.979065,766.873535 
	C826.925781,762.450928 824.177429,757.817871 821.294739,753.277527 
	C820.726868,753.504456 820.158997,753.731384 819.591125,753.958313 
	C822.558960,769.981812 825.581726,785.995422 828.470276,802.033203 
	C829.789795,809.359497 831.015747,816.712036 831.937134,824.096008 
	C832.311401,827.095032 831.817261,830.351379 827.854614,830.968018 
	C823.626770,831.625977 821.196960,829.177002 820.128418,825.488281 
	C818.884949,821.196106 818.069946,816.779846 817.016052,812.005005 
z"/>
<path fill="#D2D1D1" opacity="1.000000" stroke="none" 
	d="
M201.961853,830.307617 
	C195.692581,831.409485 193.415970,830.018188 194.107849,824.187134 
	C195.471878,812.691650 197.647003,801.290222 199.571747,789.864197 
	C201.575623,777.968628 203.679855,766.089966 205.740204,754.203857 
	C205.199310,753.992004 204.658417,753.780090 204.117508,753.568176 
	C202.145157,756.603577 200.330444,759.757507 198.159622,762.643738 
	C195.579391,766.074219 192.869370,769.449036 189.856476,772.492432 
	C188.568207,773.793701 186.350067,774.893494 184.594025,774.837769 
	C182.185028,774.761353 179.004044,774.146973 177.703949,772.522522 
	C176.800873,771.394104 178.129120,767.998779 179.112473,765.925476 
	C183.229401,757.245178 188.462753,748.989258 191.641876,739.996277 
	C195.497040,729.090881 202.341019,720.981628 211.032913,714.025879 
	C214.782150,711.025574 219.186920,708.762878 222.602036,705.451538 
	C225.483154,702.657898 227.364410,698.833008 229.823349,695.268799 
	C232.325089,696.571716 234.947983,698.322205 237.829086,699.345886 
	C241.884186,700.786682 246.070496,702.036987 250.353348,699.527039 
	C251.117462,699.079224 253.436646,699.575562 253.639526,700.139282 
	C256.161926,707.146790 261.361359,709.741638 268.210938,709.233704 
	C270.877930,732.565186 272.682770,755.418335 265.905212,778.111328 
	C262.636627,789.055359 260.677643,800.385071 257.851562,811.470276 
	C257.136719,814.274170 255.749573,817.119995 253.931976,819.341553 
	C252.990723,820.492065 250.209473,821.012817 248.673126,820.522400 
	C247.455093,820.133545 245.975647,817.656067 246.151794,816.307068 
	C246.943176,810.246216 248.388351,804.274414 249.394196,798.236633 
	C250.193436,793.438965 250.697815,788.592285 251.333099,783.767334 
	C250.748520,783.664612 250.163956,783.561951 249.579376,783.459229 
	C248.431412,788.768127 247.486664,794.131104 246.092026,799.374390 
	C243.405548,809.474426 240.679398,819.575073 237.515518,829.531128 
	C236.373016,833.126343 234.817490,838.007324 229.511047,836.552856 
	C224.047058,835.055237 225.175690,830.311401 226.026230,826.185425 
	C228.533218,814.023987 231.098297,801.874451 233.612198,789.714417 
	C233.799377,788.808960 233.760529,787.856750 232.834076,786.723389 
	C231.592667,791.630188 230.308029,796.526489 229.118835,801.445862 
	C226.624496,811.764343 224.230667,822.107483 221.673462,832.410217 
	C221.158218,834.486023 220.534805,836.817688 219.176941,838.324829 
	C217.719650,839.942261 214.848785,842.057983 213.476547,841.554199 
	C211.544327,840.844910 209.048035,837.816895 209.192322,835.967529 
	C209.847382,827.570129 211.144058,819.203491 212.593414,810.892639 
	C214.130234,802.080200 216.110016,793.345154 217.856705,784.568420 
	C217.968246,784.008057 217.738266,783.379700 216.565643,782.549927 
	C214.386002,790.260071 212.093903,797.940735 210.063187,805.689941 
	C208.508163,811.623901 207.468155,817.696045 205.819290,823.600708 
	C205.174820,825.908630 203.492493,827.926758 201.961853,830.307617 
z"/>
<path fill="#FE8C05" opacity="1.000000" stroke="none" 
	d="
M484.106445,408.805847 
	C478.106415,396.784210 471.374969,385.062988 466.284058,372.667908 
	C459.286865,355.631470 453.585968,338.064941 447.226318,320.763458 
	C442.487549,307.871643 436.717194,295.600494 426.001221,286.336761 
	C424.981903,285.455597 424.156525,283.215027 424.577942,282.120117 
	C425.002838,281.016113 427.039825,280.043549 428.464203,279.891663 
	C438.538635,278.817200 448.707458,278.438568 458.712128,276.941895 
	C475.049438,274.497864 490.488251,269.657349 502.469299,257.254059 
	C503.498291,256.188843 505.870880,254.957962 506.622375,255.421249 
	C507.838654,256.171021 508.544312,258.194092 508.894623,259.803772 
	C509.486969,262.525757 509.633575,265.344757 509.968750,269.020599 
	C510.006195,274.577118 510.070099,279.235962 510.074585,283.894867 
	C510.126709,338.137238 510.169800,392.379608 510.215332,446.621979 
	C509.667694,447.140076 509.120056,447.658173 508.058441,447.913391 
	C506.584686,446.116547 505.601166,444.596863 504.668945,443.046295 
	C497.808990,431.636292 490.959320,420.220093 484.106445,408.805847 
z"/>
<path fill="#FE8C05" opacity="1.000000" stroke="none" 
	d="
M516.817139,257.986938 
	C518.200317,254.862366 520.289368,253.783554 522.922424,256.459198 
	C540.789368,274.615265 563.945251,277.567566 587.606873,279.124268 
	C590.583130,279.320099 593.584534,279.360931 596.527161,279.793579 
	C602.320496,280.645294 602.876282,282.331207 598.712646,287.566559 
	C590.609192,294.881592 585.700195,303.530396 581.847656,313.291138 
	C580.435974,316.788300 579.246948,320.001740 577.943115,323.265564 
	C577.828308,323.315918 577.912231,323.719391 577.651855,324.039948 
	C576.612183,326.912781 575.832825,329.465057 574.867981,332.227112 
	C574.547913,332.963776 574.413269,333.490692 574.116699,334.358948 
	C572.950500,337.794159 571.946350,340.888031 570.696533,344.242615 
	C563.734131,365.393005 555.271423,385.502167 544.081787,404.436920 
	C536.921448,416.553345 530.025879,428.826294 523.011658,441.029053 
	C522.086304,442.582977 521.373901,444.336823 520.164856,445.624420 
	C519.277954,446.568939 517.739868,446.902008 516.292480,446.786530 
	C516.049622,429.266174 515.900696,412.466400 515.983337,395.667725 
	C516.209106,349.773895 516.532410,303.880493 516.817139,257.986938 
z"/>
<path fill="#3371F8" opacity="1.000000" stroke="none" 
	d="
M381.531799,314.552094 
	C375.635498,323.984070 369.793762,333.047699 364.390594,342.365662 
	C361.139099,347.972961 358.952637,354.327881 351.864502,356.404877 
	C350.607697,356.773102 349.261322,357.198212 347.991913,357.106201 
	C332.021393,355.948242 318.945465,362.856934 306.587952,371.815338 
	C304.870972,373.060089 303.176575,374.335876 300.977509,375.962952 
	C296.420959,357.611755 294.824463,339.796356 298.863403,321.686096 
	C302.562531,305.099670 309.804901,290.647980 323.599213,280.148743 
	C334.926208,271.527496 348.145386,268.073120 361.993225,265.942017 
	C377.059875,263.623322 390.696625,267.336334 403.693817,274.371857 
	C412.513611,279.146118 412.850250,284.758179 405.529022,291.492554 
	C397.452820,298.921417 389.677521,306.677399 381.531799,314.552094 
z"/>
<path fill="#3371F8" opacity="1.000000" stroke="none" 
	d="
M663.026367,345.970154 
	C657.823914,330.651489 648.380859,318.091461 637.152039,306.790131 
	C631.647461,301.249969 625.754089,296.087006 619.911072,290.894684 
	C613.308044,285.027039 613.549988,279.531769 621.234009,274.996613 
	C637.272583,265.530518 654.302307,263.398132 672.607910,267.284302 
	C707.714111,274.737213 724.827454,297.914124 728.812683,332.734741 
	C730.511719,347.579773 728.323181,366.280640 724.695557,375.369385 
	C720.730652,372.601837 716.964478,369.650696 712.898010,367.197479 
	C702.354126,360.836548 691.223999,356.574524 678.524658,356.915131 
	C675.218872,357.003845 671.846436,354.609558 668.075745,352.885956 
	C666.106689,350.267517 664.566528,348.118835 663.026367,345.970154 
z"/>
<path fill="#FEDD0C" opacity="1.000000" stroke="none" 
	d="
M505.954346,453.078552 
	C507.190308,461.051941 509.442688,469.018433 509.496674,476.999817 
	C509.838562,527.562561 509.707550,578.128601 509.681824,628.693542 
	C509.679962,632.342285 509.515350,636.025024 508.998657,639.630676 
	C508.346069,644.184448 505.890747,645.092834 502.698975,641.995911 
	C495.785645,635.287903 488.584381,628.793945 482.397949,621.456055 
	C479.496338,618.014465 478.672089,612.821411 476.816162,607.622437 
	C476.665100,600.679199 476.063354,594.484131 476.643066,588.401672 
	C478.519409,568.714050 480.755005,549.059265 482.989227,529.407410 
	C486.717163,496.616943 487.556732,463.714813 487.076263,430.753143 
	C487.053833,429.214142 487.290955,427.671326 487.407227,426.130249 
	C487.908905,425.967834 488.410583,425.805389 488.912262,425.642944 
	C495.669922,434.072449 500.248230,443.950256 505.954346,453.078552 
z"/>
<path fill="#FEDB08" opacity="1.000000" stroke="none" 
	d="
M516.280396,550.962097 
	C516.371826,550.221985 516.463196,549.481873 516.584229,547.938232 
	C516.647034,537.343323 516.747192,527.551453 516.694641,517.760498 
	C516.641296,507.820190 516.437195,497.880737 516.299072,487.940918 
	C516.397888,483.608459 516.496643,479.276001 516.620972,474.055359 
	C516.859558,469.149475 517.072449,465.131714 517.285400,461.113983 
	C520.181396,454.984894 523.077332,448.855774 526.334534,442.201355 
	C530.069946,436.301910 533.444214,430.927856 536.818420,425.553772 
	C537.568237,425.774902 538.318054,425.996033 539.067871,426.217133 
	C539.067871,429.576294 539.132935,432.936890 539.057800,436.294342 
	C538.241028,472.804749 540.903381,509.117218 544.754517,545.396118 
	C546.928589,565.876404 548.205750,586.451904 549.886963,606.984497 
	C549.032043,616.440002 543.570251,622.846802 536.464539,628.576294 
	C531.867004,632.283325 528.200623,637.128296 523.946289,641.288879 
	C522.758301,642.450745 520.963745,642.992554 519.447449,643.818726 
	C518.599487,642.154907 517.445618,640.570679 516.986877,638.805664 
	C516.497070,636.921265 516.663574,634.866272 516.546997,632.014954 
	C516.599854,611.541382 516.690369,591.938599 516.677185,572.335815 
	C516.672424,565.211182 516.419922,558.086670 516.280396,550.962097 
z"/>
<path fill="#F6302B" opacity="1.000000" stroke="none" 
	d="
M594.646362,239.418533 
	C610.393799,247.249329 625.838501,254.873901 641.439880,262.575836 
	C619.798035,270.274841 598.300049,278.348541 574.374878,273.566742 
	C560.613953,270.816437 546.960693,268.318054 534.867249,260.578796 
	C525.713318,254.720642 520.406799,246.301270 520.508240,235.746155 
	C520.606262,225.544250 521.463684,215.029327 524.146973,205.244034 
	C528.725281,188.547836 544.297668,185.644058 555.721375,198.607727 
	C557.797729,200.963989 559.782410,203.527771 561.216248,206.302277 
	C568.738403,220.857559 580.030518,231.535110 594.646362,239.418533 
z"/>
<path fill="#F6302B" opacity="1.000000" stroke="none" 
	d="
M440.741272,274.763855 
	C420.373810,275.206299 407.911224,272.449066 384.363342,262.217834 
	C387.154724,260.978638 389.297760,259.977295 391.478760,259.066986 
	C409.155609,251.688965 426.359283,243.412369 442.283142,232.654312 
	C450.432739,227.148499 456.743896,220.026688 461.867188,211.663666 
	C464.894806,206.721451 468.070282,201.739548 471.947357,197.473572 
	C481.644165,186.803955 494.756012,188.361633 500.694336,201.369064 
	C507.162964,215.537903 508.429688,230.654175 503.617950,245.650665 
	C500.195801,256.316254 491.224335,261.752930 481.489807,265.880371 
	C468.628540,271.333557 455.010223,273.469421 440.741272,274.763855 
z"/>
<path fill="#259020" opacity="1.000000" stroke="none" 
	d="
M283.547546,582.630493 
	C273.619080,618.625916 263.828583,654.221619 253.994339,689.805298 
	C252.943771,693.606567 251.330719,697.275024 246.858994,697.898376 
	C241.491806,698.646545 236.393250,697.544128 232.940567,693.042786 
	C231.851212,691.622559 231.441483,688.938965 231.926834,687.163269 
	C240.262314,656.666687 243.863754,625.482910 246.110153,594.054871 
	C247.428345,575.613037 249.842529,557.293945 256.031555,539.719604 
	C257.127075,536.608765 258.419373,533.449280 260.252716,530.739807 
	C264.603638,524.309631 270.545380,524.138306 275.397980,530.176086 
	C281.096832,537.266724 284.106018,545.794373 284.778717,554.530029 
	C285.483337,563.679810 284.127869,572.988281 283.547546,582.630493 
z"/>
<path fill="#259020" opacity="1.000000" stroke="none" 
	d="
M741.166016,552.229492 
	C743.877380,545.197327 745.786804,538.164795 749.317749,532.072021 
	C754.635254,522.896362 763.333801,523.442749 767.155640,533.424194 
	C770.996460,543.455505 774.169067,553.993591 775.734131,564.590271 
	C778.528259,583.508606 779.970703,602.630371 781.834839,621.681152 
	C783.914917,642.938538 787.491821,663.908813 793.327393,684.472473 
	C795.283325,691.364868 793.339600,695.032471 786.518921,697.327759 
	C779.195068,699.792358 774.236267,697.927856 772.230408,691.056396 
	C764.166931,663.433350 755.998108,635.830811 748.641663,608.016113 
	C744.914124,593.922302 742.594727,579.433105 740.166504,565.033630 
	C739.498169,561.070251 740.729919,556.786499 741.166016,552.229492 
z"/>
<path fill="#259020" opacity="1.000000" stroke="none" 
	d="
M293.073425,562.090088 
	C298.614716,555.166809 305.726410,550.778564 314.150513,547.990112 
	C317.483673,546.886902 320.198334,543.979065 323.284393,542.035461 
	C324.599060,541.207458 326.794739,539.841614 327.444702,540.309937 
	C328.686859,541.204895 329.882965,543.310547 329.746033,544.788391 
	C328.795746,555.046265 328.122925,565.393066 326.170441,575.480835 
	C322.915802,592.296509 315.178864,607.477722 307.614197,622.723877 
	C296.677216,644.766907 286.195740,667.038208 275.725220,689.308594 
	C273.758301,693.492004 272.507782,698.066223 271.378906,702.573303 
	C270.407806,706.450500 268.072235,707.233276 264.693481,706.543640 
	C258.247620,705.227844 254.702759,699.906372 256.437347,692.931763 
	C258.926361,682.923523 262.122650,673.093689 264.831696,663.137207 
	C272.697937,634.226929 280.417938,605.276672 288.337219,576.381042 
	C289.605408,571.753723 291.603394,567.326416 293.130920,562.406982 
	C292.997833,562.007385 293.073425,562.090088 293.073425,562.090088 
z"/>
<path fill="#259020" opacity="1.000000" stroke="none" 
	d="
M735.961182,571.078918 
	C743.336670,598.599060 750.540283,625.757996 757.911377,652.871521 
	C761.530457,666.183899 765.662354,679.358704 769.167603,692.699524 
	C771.041687,699.832153 767.682312,705.309753 761.419128,706.548828 
	C758.192627,707.187195 755.420593,706.595947 754.346069,702.887207 
	C746.138916,674.560425 732.080383,648.882324 718.258667,623.092468 
	C707.008850,602.101501 698.590881,580.165771 696.489563,556.201660 
	C696.141479,552.232849 695.937622,548.209778 696.176331,544.242432 
	C696.436523,539.918457 698.488525,539.244385 702.052246,541.401489 
	C707.690430,544.814209 713.375671,548.213562 719.309692,551.057922 
	C727.885071,555.168274 732.869995,562.023987 735.961182,571.078918 
z"/>
<path fill="#D2D1D1" opacity="1.000000" stroke="none" 
	d="
M601.106079,291.105774 
	C608.561646,287.138977 614.374084,288.973572 619.964233,295.219788 
	C628.896179,305.199921 639.099976,314.093689 647.526062,324.455078 
	C652.614807,330.712555 655.361084,338.874939 659.144531,346.959045 
	C658.414734,349.811157 657.700500,351.885590 656.662231,354.103455 
	C642.002197,361.032654 627.431519,365.950928 611.466003,359.957886 
	C599.845764,355.595947 591.824219,347.485291 586.324524,336.481842 
	C582.559204,328.948517 582.516479,321.606598 586.377197,313.888184 
	C591.458313,306.140594 596.282227,298.623199 601.106079,291.105774 
z"/>
<path fill="#D2D1D1" opacity="1.000000" stroke="none" 
	d="
M434.355530,303.717834 
	C437.028351,310.689972 440.446442,317.159515 441.784821,324.033936 
	C443.423248,332.449707 438.608887,339.543579 433.546692,345.772797 
	C421.065155,361.131683 404.567383,364.783203 385.946167,360.720367 
	C381.451996,359.739868 377.096832,357.819916 372.897400,355.861115 
	C366.475891,352.865875 364.519257,348.208252 368.143372,342.052460 
	C373.846008,332.366333 379.756134,322.641327 386.868164,313.993469 
	C393.369354,306.088379 401.474304,299.473389 409.073761,292.509521 
	C415.189758,286.905029 422.522339,287.878296 428.157684,294.850586 
	C430.343079,297.554474 432.182007,300.538391 434.355530,303.717834 
z"/>
<path fill="#D2D1D1" opacity="1.000000" stroke="none" 
	d="
M622.305420,508.413025 
	C622.978088,507.288788 623.477051,506.478851 623.976013,505.668915 
	C624.409241,505.699219 624.842468,505.729492 625.275696,505.759796 
	C618.269836,543.370605 628.602417,579.948059 631.275574,618.318481 
	C609.590027,596.729614 586.237305,602.166992 561.346069,612.309448 
	C562.439880,609.261719 562.982605,607.314453 563.813721,605.499207 
	C575.486084,580.002075 591.290894,556.983337 606.749451,533.743347 
	C612.167480,525.598022 617.020569,517.076843 622.305420,508.413025 
z"/>
<path fill="#D2D1D1" opacity="1.000000" stroke="none" 
	d="
M430.798706,603.081787 
	C416.839386,603.142212 405.038940,607.448669 394.834229,618.889954 
	C397.476715,580.759583 407.167480,544.805298 402.102081,507.691254 
	C423.201233,542.233459 449.042389,573.623108 464.721527,610.911743 
	C453.492645,608.291870 442.370392,605.696838 430.798706,603.081787 
z"/>
<path fill="#D2D2D2" opacity="1.000000" stroke="none" 
	d="
M377.013519,918.996826 
	C373.961609,902.147217 369.989746,885.813293 368.205383,869.243713 
	C365.900635,847.841736 364.110748,826.235413 364.392212,804.747131 
	C364.657990,784.458496 367.652222,764.181519 369.924744,743.953247 
	C371.068451,733.772583 373.258606,723.708557 375.014923,713.598694 
	C375.293488,711.995239 375.780640,710.428101 377.128815,708.790283 
	C378.054169,714.378845 378.518799,720.093689 380.007172,725.528015 
	C382.584900,734.939758 385.918945,744.142090 388.657806,753.513428 
	C389.350128,755.882263 389.795685,758.852173 388.992859,761.047913 
	C380.021790,785.584351 375.806458,810.882935 374.767578,836.970276 
	C373.932434,857.941711 375.197357,878.688416 377.862640,899.420105 
	C379.506287,912.204956 381.287811,924.972107 382.129181,937.980591 
	C380.441467,931.789673 378.753723,925.598694 377.013519,918.996826 
z"/>
<path fill="#D2D2D2" opacity="1.000000" stroke="none" 
	d="
M650.382202,820.608398 
	C648.434082,800.432739 644.465515,781.191101 637.490112,762.572815 
	C636.537720,760.030945 636.296204,756.522034 637.269653,754.075195 
	C642.761353,740.271484 646.754395,726.148987 648.153442,711.327454 
	C648.227234,710.545532 648.703308,709.801697 649.062256,708.855286 
	C655.163635,725.752136 663.642761,785.115051 661.873169,823.295532 
	C660.084595,861.883850 655.312683,900.054260 642.922180,936.974670 
	C644.035217,929.549500 645.372559,922.149597 646.214478,914.693787 
	C647.960449,899.232910 649.658508,883.760315 650.952393,868.257141 
	C651.710999,859.166016 651.916077,850.005676 651.875427,840.878601 
	C651.846008,834.265015 651.004395,827.654907 650.382202,820.608398 
z"/>
<path fill="#D2D1D1" opacity="1.000000" stroke="none" 
	d="
M483.927704,789.178345 
	C480.455048,779.312012 480.612854,779.532104 488.976074,773.535400 
	C494.573303,769.522034 499.643524,764.773621 504.822815,760.459717 
	C509.971954,821.756897 501.627167,881.445312 481.896942,939.763428 
	C482.257782,935.537842 482.600830,931.310730 482.984283,927.087158 
	C483.388550,922.634399 483.729370,918.172607 484.275787,913.736633 
	C486.156311,898.470764 488.596405,883.255249 489.892975,867.941772 
	C490.955841,855.388611 491.737000,842.639771 490.736206,830.130127 
	C489.647186,816.517395 486.357697,803.080627 483.927704,789.178345 
z"/>
<path fill="#D2D1D1" opacity="1.000000" stroke="none" 
	d="
M522.815186,761.226318 
	C529.231934,766.453491 535.282715,771.611450 541.685181,776.288086 
	C544.544922,778.376892 545.623779,780.075867 544.238342,783.623840 
	C538.206299,799.071716 535.781982,815.300842 535.074341,831.741150 
	C534.093872,854.517334 535.939941,877.117432 539.764221,899.622131 
	C541.812134,911.673279 542.618225,923.936157 543.947021,936.107605 
	C544.084961,937.371399 543.965515,938.663330 543.526062,939.977722 
	C524.891113,881.252136 515.391968,821.387390 521.490479,759.768921 
	C521.589478,759.875977 522.090942,760.418518 522.815186,761.226318 
z"/>
<path fill="#FBF9EC" opacity="1.000000" stroke="none" 
	d="
M550.209961,607.008911 
	C548.205750,586.451904 546.928589,565.876404 544.754517,545.396118 
	C540.903381,509.117218 538.241028,472.804749 539.057800,436.294342 
	C539.132935,432.936890 539.067871,429.576294 539.067871,426.217133 
	C538.318054,425.996033 537.568237,425.774902 536.818420,425.553772 
	C533.444214,430.927856 530.069946,436.301910 526.414795,441.853149 
	C525.239685,441.872040 524.345520,441.713776 523.231445,441.292297 
	C530.025879,428.826294 536.921448,416.553345 544.081787,404.436920 
	C555.271423,385.502167 563.734131,365.393005 571.086182,344.291443 
	C573.260498,344.423981 574.799622,344.768341 576.338745,345.112701 
	C571.502747,364.226746 564.970337,382.834015 554.569885,399.536530 
	C546.358582,412.723267 543.514099,426.399017 543.418335,441.618073 
	C543.155884,483.293610 546.105286,524.685181 551.594604,565.975891 
	C553.408142,579.617493 553.558105,593.480347 554.317505,607.649536 
	C552.955200,607.715881 551.744019,607.374634 550.209961,607.008911 
z"/>
<path fill="#FBF9EC" opacity="1.000000" stroke="none" 
	d="
M516.472290,258.040100 
	C516.532410,303.880493 516.209106,349.773895 515.983337,395.667725 
	C515.900696,412.466400 516.049622,429.266174 516.053223,446.532776 
	C514.400513,446.941223 512.787476,446.882324 510.694885,446.722717 
	C510.169800,392.379608 510.126709,338.137238 510.074585,283.894867 
	C510.070099,279.235962 510.006195,274.577118 510.043457,269.453827 
	C510.748505,267.850342 511.382263,266.712555 512.010925,265.571930 
	C513.384521,263.079803 514.755432,260.586212 516.472290,258.040100 
z"/>
<path fill="#FBF9EC" opacity="1.000000" stroke="none" 
	d="
M506.107330,452.773376 
	C500.248230,443.950256 495.669922,434.072449 488.912262,425.642944 
	C488.410583,425.805389 487.908905,425.967834 487.407227,426.130249 
	C487.290955,427.671326 487.053833,429.214142 487.076263,430.753143 
	C487.556732,463.714813 486.717163,496.616943 482.989227,529.407410 
	C480.755005,549.059265 478.519409,568.714050 476.643066,588.401672 
	C476.063354,594.484131 476.665100,600.679199 476.701477,607.262939 
	C475.440094,607.800171 474.203094,607.897217 472.507019,607.994019 
	C473.171783,591.250061 473.440735,574.395874 475.585358,557.783875 
	C481.248566,513.917236 483.596405,469.944611 481.866730,425.765350 
	C481.709015,421.737427 479.984467,417.770813 478.997101,413.387085 
	C480.606476,411.809875 482.206268,410.621338 483.956238,409.119324 
	C490.959320,420.220093 497.808990,431.636292 504.668945,443.046295 
	C505.601166,444.596863 506.584686,446.116547 507.756897,447.928162 
	C507.399658,449.626617 506.829987,451.047424 506.107330,452.773376 
z"/>
<path fill="#D2D2D2" opacity="1.000000" stroke="none" 
	d="
M420.691742,1030.691162 
	C423.310028,1026.269043 425.758392,1022.171692 428.206757,1018.074341 
	C428.806580,1017.977783 429.406403,1017.881226 430.006195,1017.784668 
	C434.081635,1027.357544 438.157074,1036.930542 442.382385,1046.855469 
	C432.532654,1050.917480 432.724548,1060.802856 429.084442,1068.807861 
	C425.553131,1058.696533 427.581635,1046.137207 414.298309,1040.985840 
	C416.263458,1037.837769 418.392639,1034.426758 420.691742,1030.691162 
z"/>
<path fill="#D2D2D2" opacity="1.000000" stroke="none" 
	d="
M597.937927,1066.505859 
	C597.775391,1067.356567 597.624390,1067.820801 597.473389,1068.285156 
	C597.021729,1067.986694 596.301086,1067.780884 596.161011,1067.374878 
	C595.081543,1064.246826 594.101318,1061.084106 593.115967,1057.924072 
	C591.610413,1053.095459 590.100952,1048.280518 583.319397,1047.519287 
	C588.927124,1037.641479 590.592163,1026.889526 596.888428,1016.718628 
	C602.344543,1025.713501 607.003540,1033.394287 611.927429,1041.511719 
	C605.295837,1041.896973 602.653687,1046.254272 601.248596,1051.644775 
	C600.001099,1056.431152 599.038086,1061.291626 597.937927,1066.505859 
z"/>
<path fill="#D2D2D2" opacity="1.000000" stroke="none" 
	d="
M268.660217,505.651581 
	C272.846680,495.368896 276.858337,485.422363 281.046448,475.038361 
	C280.384430,493.937988 279.730316,512.612244 279.096161,530.716003 
	C275.095398,526.347412 270.509033,519.765442 261.531952,525.299500 
	C261.231018,524.934937 260.930084,524.570374 260.629150,524.205811 
	C263.247894,518.133118 265.866638,512.060425 268.660217,505.651581 
z"/>
<path fill="#D2D2D2" opacity="1.000000" stroke="none" 
	d="
M759.881287,511.174713 
	C761.627380,515.687866 763.273804,519.833008 764.956909,524.070496 
	C761.050537,524.070496 757.111877,523.127625 754.007874,524.333374 
	C750.849731,525.560181 748.513733,528.903442 744.500427,532.500671 
	C750.055481,512.891602 742.975464,494.667969 745.218567,476.766541 
	C749.953613,487.834412 754.867676,499.320587 759.881287,511.174713 
z"/>
<path fill="#FBF9EC" opacity="1.000000" stroke="none" 
	d="
M515.953918,551.087402 
	C516.419922,558.086670 516.672424,565.211182 516.677185,572.335815 
	C516.690369,591.938599 516.599854,611.541382 516.393372,631.591614 
	C515.492493,630.380005 514.110718,628.724792 514.100830,627.061401 
	C513.959961,603.409241 513.972839,579.755920 514.074646,556.103394 
	C514.081665,554.470947 515.086548,552.842773 515.953918,551.087402 
z"/>
<path fill="#FBF9EC" opacity="1.000000" stroke="none" 
	d="
M515.937378,487.998718 
	C516.437195,497.880737 516.641296,507.820190 516.694641,517.760498 
	C516.747192,527.551453 516.647034,537.343323 516.456421,547.581543 
	C515.534302,545.978699 514.155518,543.943054 514.108826,541.877319 
	C513.879822,531.737610 514.004883,521.589966 514.004883,511.445099 
	C514.004883,505.045471 513.913208,498.643463 514.076355,492.248016 
	C514.112305,490.839020 515.052124,489.453094 515.937378,487.998718 
z"/>
<path fill="#D1D0D0" opacity="1.000000" stroke="none" 
	d="
M293.040497,562.041870 
	C291.550507,563.056396 290.017822,564.036377 288.543274,564.979187 
	C287.498718,557.709534 286.434113,550.300110 285.422211,543.257568 
	C289.778809,545.890930 294.400482,548.684570 298.968414,551.445679 
	C297.262329,554.264343 295.121094,557.801880 293.026672,561.714722 
	C293.073425,562.090088 292.997833,562.007385 293.040497,562.041870 
z"/>
<path fill="#D2D2D2" opacity="1.000000" stroke="none" 
	d="
M735.313354,563.444336 
	C732.106445,558.959229 729.084290,554.765442 726.466797,551.133240 
	C730.813782,548.682434 735.706421,545.924011 740.726379,543.093811 
	C739.591980,549.463196 738.432678,556.127747 737.155640,562.769775 
	C737.076233,563.182739 736.072021,563.417847 735.313354,563.444336 
z"/>
<path fill="#FBF9EC" opacity="1.000000" stroke="none" 
	d="
M600.790039,290.931854 
	C596.282227,298.623199 591.458313,306.140594 586.140503,313.601868 
	C584.454529,313.366302 583.262451,313.186859 582.070374,313.007416 
	C585.700195,303.530396 590.609192,294.881592 598.565308,287.859344 
	C599.407349,288.727966 599.940674,289.742950 600.790039,290.931854 
z"/>
<path fill="#FBF9EC" opacity="1.000000" stroke="none" 
	d="
M656.986267,353.960022 
	C657.700500,351.885590 658.414734,349.811157 659.205322,347.345886 
	C660.385376,346.804413 661.489075,346.653839 662.809570,346.236694 
	C664.566528,348.118835 666.106689,350.267517 667.758728,352.726685 
	C667.135010,353.025452 666.399414,353.013733 664.996521,352.903809 
	C663.574768,355.198059 662.820312,357.590546 662.065857,359.982971 
	C661.342224,359.986053 660.618530,359.989136 659.533325,359.979492 
	C658.805115,359.601440 658.438477,359.236115 658.008484,358.241272 
	C657.625488,356.394501 657.305908,355.177246 656.986267,353.960022 
z"/>
<path fill="#D2D2D2" opacity="1.000000" stroke="none" 
	d="
M356.113220,360.022949 
	C357.886353,357.434601 359.946838,355.020599 362.759094,351.725861 
	C363.316650,357.464844 363.778442,362.218109 364.326447,367.858917 
	C361.214417,364.850616 358.807495,362.523926 356.113220,360.022949 
z"/>
<path fill="#FBF9EC" opacity="1.000000" stroke="none" 
	d="
M509.977417,225.595657 
	C512.047119,224.810791 514.120972,224.435257 516.604248,224.050262 
	C516.109985,228.250336 515.206421,232.459854 514.302917,236.669373 
	C513.551086,236.709747 512.799255,236.750122 512.047424,236.790497 
	C511.358826,233.195328 510.670197,229.600159 509.977417,225.595657 
z"/>
<path fill="#D1D0D0" opacity="1.000000" stroke="none" 
	d="
M662.068726,360.406311 
	C662.820312,357.590546 663.574768,355.198059 664.628540,352.906372 
	C666.728882,355.062347 668.529907,357.117584 670.423889,359.278870 
	C668.387573,361.328888 666.341309,363.388947 663.828247,365.743195 
	C662.927063,365.991638 662.492615,365.945831 662.058228,365.900055 
	C662.062683,364.209900 662.067139,362.519745 662.068726,360.406311 
z"/>
<path fill="#FBF9EC" opacity="1.000000" stroke="none" 
	d="
M516.888062,461.131805 
	C517.072449,465.131714 516.859558,469.149475 516.493408,473.612122 
	C512.884094,471.702087 512.964417,464.815338 516.888062,461.131805 
z"/>
<path fill="#FBF9EC" opacity="1.000000" stroke="none" 
	d="
M662.069214,366.208313 
	C662.492615,365.945831 662.927063,365.991638 663.689697,366.047974 
	C663.757202,366.564209 663.496582,367.069855 663.235962,367.575500 
	C662.850769,367.222534 662.465515,366.869537 662.069214,366.208313 
z"/>
<path fill="#D2D2D2" opacity="1.000000" stroke="none" 
	d="
M642.637329,939.747559 
	C642.621887,939.990540 642.499390,940.121155 642.376953,940.251770 
	C642.428101,940.046265 642.479248,939.840698 642.637329,939.747559 
z"/>
<path fill="#D2D2D2" opacity="1.000000" stroke="none" 
	d="
M636.253418,1242.031982 
	C636.412415,1241.921509 636.571411,1241.974243 636.730408,1242.026978 
	C636.571472,1242.083008 636.412476,1242.139038 636.253418,1242.031982 
z"/>
<path fill="#D2D1D1" opacity="1.000000" stroke="none" 
	d="
M401.476868,505.469666 
	C401.531586,505.436981 401.422180,505.502319 401.476868,505.469666 
z"/>
<path fill="#D2D2D2" opacity="1.000000" stroke="none" 
	d="
M744.450562,533.520264 
	C744.418091,533.461792 744.483093,533.578674 744.450562,533.520264 
z"/>
<path fill="#D2D2D2" opacity="1.000000" stroke="none" 
	d="
M741.462708,540.539673 
	C741.438660,540.493652 741.486755,540.585632 741.462708,540.539673 
z"/>
<path fill="#FDFDFD" opacity="1.000000" stroke="none" 
	d="
M656.662231,354.103455 
	C657.305908,355.177246 657.625488,356.394501 657.917114,357.998016 
	C653.995117,359.382965 649.910400,359.923859 646.237976,361.454102 
	C621.517700,371.754913 595.779724,362.067719 583.921509,337.867249 
	C583.159546,336.312103 581.840576,335.029907 580.168823,332.807129 
	C578.758545,337.661926 577.760376,341.098358 576.550415,344.823761 
	C574.799622,344.768341 573.260498,344.423981 571.331787,344.030762 
	C571.946350,340.888031 572.950500,337.794159 574.385132,334.316315 
	C574.894958,333.294037 574.974243,332.655701 575.053467,332.017365 
	C575.832825,329.465057 576.612183,326.912781 577.684631,323.959290 
	C577.977783,323.558105 578.057922,323.215179 578.057922,323.215179 
	C579.246948,320.001740 580.435974,316.788300 581.847656,313.291138 
	C583.262451,313.186859 584.454529,313.366302 585.883240,313.832092 
	C582.516479,321.606598 582.559204,328.948517 586.324524,336.481842 
	C591.824219,347.485291 599.845764,355.595947 611.466003,359.957886 
	C627.431519,365.950928 642.002197,361.032654 656.662231,354.103455 
z"/>
<path fill="#FBF9EC" opacity="1.000000" stroke="none" 
	d="
M574.868042,332.227112 
	C574.974243,332.655701 574.894958,333.294037 574.547180,333.975006 
	C574.413269,333.490692 574.547913,332.963776 574.868042,332.227112 
z"/>
<path fill="#FBF9EC" opacity="1.000000" stroke="none" 
	d="
M577.943115,323.265564 
	C578.057922,323.215179 577.977783,323.558105 577.945007,323.638733 
	C577.912231,323.719391 577.828308,323.315918 577.943115,323.265564 
z"/>
</svg>